<?xml version="1.0" encoding="UTF-8" standalone="no"?>
<!-- Created with Inkscape (http://www.inkscape.org/) -->

<svg
   xmlns:dc="http://purl.org/dc/elements/1.1/"
   xmlns:cc="http://creativecommons.org/ns#"
   xmlns:rdf="http://www.w3.org/1999/02/22-rdf-syntax-ns#"
   xmlns:svg="http://www.w3.org/2000/svg"
   xmlns="http://www.w3.org/2000/svg"
   xmlns:sodipodi="http://sodipodi.sourceforge.net/DTD/sodipodi-0.dtd"
   xmlns:inkscape="http://www.inkscape.org/namespaces/inkscape"
   width="250"
   height="250"
   id="svg2983"
   version="1.1"
   inkscape:version="0.48.3.1 r9886"
   inkscape:export-filename="/home/zac/web/gottagofast/img/profile-images/google+.png"
   inkscape:export-xdpi="90"
   inkscape:export-ydpi="90"
   sodipodi:docname="google+.svg">
  <defs
     id="defs2985" />
  <sodipodi:namedview
     id="base"
     pagecolor="#ffffff"
     bordercolor="#666666"
     borderopacity="1.0"
     inkscape:pageopacity="0.0"
     inkscape:pageshadow="2"
     inkscape:zoom="1"
     inkscape:cx="-0.10449157"
     inkscape:cy="16.9046"
     inkscape:current-layer="layer1-1"
     showgrid="true"
     inkscape:grid-bbox="true"
     inkscape:document-units="px"
     showguides="false"
     inkscape:guide-bbox="true"
     inkscape:window-width="1366"
     inkscape:window-height="741"
     inkscape:window-x="0"
     inkscape:window-y="-5"
     inkscape:window-maximized="1">
    <sodipodi:guide
       orientation="1,0"
       position="1.8470297,10.068564"
       id="guide3124" />
    <sodipodi:guide
       orientation="1,0"
       position="14.190594,7.4106436"
       id="guide3126" />
  </sodipodi:namedview>
  <metadata
     id="metadata2988">
    <rdf:RDF>
      <cc:Work
         rdf:about="">
        <dc:format>image/svg+xml</dc:format>
        <dc:type
           rdf:resource="http://purl.org/dc/dcmitype/StillImage" />
        <dc:title></dc:title>
      </cc:Work>
    </rdf:RDF>
  </metadata>
  <g
     id="layer1"
     inkscape:label="Layer 1"
     inkscape:groupmode="layer"
     transform="translate(0,234)">
    <g
       transform="matrix(0.04969892,0,0,0.04969892,-12.230991,-11.586426)"
       id="layer1-1"
       inkscape:label="Layer 1">
      <flowRoot
         transform="matrix(1.9378081,0,0,1.9908229,609.45179,-1186.115)"
         style="font-size:40px;font-style:normal;font-weight:normal;line-height:125%;letter-spacing:0px;word-spacing:0px;fill:#000000;fill-opacity:1;stroke:none;font-family:Sans"
         id="flowRoot5331"
         xml:space="preserve"><flowRegion
           id="flowRegion5333"><rect
             y="252.36218"
             x="372.85715"
             height="170.00002"
             width="1185.7142"
             id="rect5335" /></flowRegion><flowPara
           style="font-size:72px;font-style:normal;font-variant:normal;font-weight:normal;font-stretch:normal;text-align:start;line-height:100%;writing-mode:tb-rl;text-anchor:start;font-family:Sawasdee;-inkscape-font-specification:Sawasdee"
           id="flowPara5337">GAMING</flowPara><flowPara
           id="flowPara5485"
           style="font-size:72px;font-style:normal;font-variant:normal;font-weight:normal;font-stretch:normal;text-align:start;line-height:100%;writing-mode:tb-rl;text-anchor:start;font-family:Sawasdee;-inkscape-font-specification:Sawasdee">SOCIETY</flowPara></flowRoot>      <flowRoot
         style="font-size:40px;font-style:normal;font-variant:normal;font-weight:normal;font-stretch:normal;text-align:start;line-height:125%;letter-spacing:0px;word-spacing:0px;writing-mode:lr-tb;text-anchor:start;fill:#000000;fill-opacity:1;stroke:none;font-family:Sans;-inkscape-font-specification:Sans"
         id="flowRoot5487"
         xml:space="preserve"
         transform="matrix(1.9378081,0,0,1.9908229,581.76884,-1749.2335)"><flowRegion
           id="flowRegion5489"><rect
             y="184.46997"
             x="400.02042"
             height="202.0305"
             width="371.73615"
             id="rect5491" /></flowRegion><flowPara
           id="flowPara5493" /></flowRoot>      <flowRoot
         style="font-size:40px;font-style:normal;font-variant:normal;font-weight:normal;font-stretch:normal;text-align:start;line-height:125%;letter-spacing:0px;word-spacing:0px;writing-mode:lr-tb;text-anchor:start;fill:#000000;fill-opacity:1;stroke:none;font-family:Sans;-inkscape-font-specification:Sans"
         id="flowRoot5537"
         xml:space="preserve"
         transform="matrix(1.9378081,0,0,1.9908229,581.76884,-1749.2335)"><flowRegion
           id="flowRegion5539"><rect
             y="44.808769"
             x="213.57143"
             height="316.42856"
             width="85"
             id="rect5541" /></flowRegion><flowPara
           id="flowPara5543" /></flowRoot>      <flowRoot
         transform="matrix(1.9378081,0,0,1.9908229,189.95791,-721.59402)"
         style="font-size:40px;font-style:normal;font-weight:normal;line-height:125%;letter-spacing:0px;word-spacing:0px;fill:#000000;fill-opacity:1;stroke:none;font-family:Sans"
         id="flowRoot5331-4"
         xml:space="preserve"><flowRegion
           id="flowRegion5333-5"><rect
             y="252.36218"
             x="372.85715"
             height="170.00002"
             width="1185.7142"
             id="rect5335-0" /></flowRegion><flowPara
           style="font-size:72px;font-style:normal;font-variant:normal;font-weight:normal;font-stretch:normal;text-align:start;line-height:100%;writing-mode:tb-rl;text-anchor:start;font-family:Sawasdee;-inkscape-font-specification:Sawasdee"
           id="flowPara5337-3">GAMING</flowPara><flowPara
           id="flowPara5485-5"
           style="font-size:72px;font-style:normal;font-variant:normal;font-weight:normal;font-stretch:normal;text-align:start;line-height:100%;writing-mode:tb-rl;text-anchor:start;font-family:Sawasdee;-inkscape-font-specification:Sawasdee">SOCIETY</flowPara></flowRoot>      <flowRoot
         style="font-size:40px;font-style:normal;font-variant:normal;font-weight:normal;font-stretch:normal;text-align:start;line-height:125%;letter-spacing:0px;word-spacing:0px;writing-mode:lr-tb;text-anchor:start;fill:#000000;fill-opacity:1;stroke:none;font-family:Sans;-inkscape-font-specification:Sans"
         id="flowRoot5487-8"
         xml:space="preserve"
         transform="matrix(1.9378081,0,0,1.9908229,162.27495,-1284.7124)"><flowRegion
           id="flowRegion5489-3"><rect
             y="184.46997"
             x="400.02042"
             height="202.0305"
             width="371.73615"
             id="rect5491-7" /></flowRegion><flowPara
           id="flowPara5493-3" /></flowRoot>      <flowRoot
         style="font-size:40px;font-style:normal;font-variant:normal;font-weight:normal;font-stretch:normal;text-align:start;line-height:125%;letter-spacing:0px;word-spacing:0px;writing-mode:lr-tb;text-anchor:start;fill:#000000;fill-opacity:1;stroke:none;font-family:Sans;-inkscape-font-specification:Sans"
         id="flowRoot5537-3"
         xml:space="preserve"
         transform="matrix(1.9378081,0,0,1.9908229,162.27495,-1284.7124)"><flowRegion
           id="flowRegion5539-3"><rect
             y="44.808769"
             x="213.57143"
             height="316.42856"
             width="85"
             id="rect5541-1" /></flowRegion><flowPara
           id="flowPara5543-5" /></flowRoot>      <flowRoot
         style="font-size:40px;font-style:normal;font-variant:normal;font-weight:normal;font-stretch:normal;text-align:start;line-height:125%;letter-spacing:0px;word-spacing:0px;writing-mode:lr-tb;text-anchor:start;fill:#000000;fill-opacity:1;stroke:none;font-family:Sans;-inkscape-font-specification:Sans"
         id="flowRoot7458"
         xml:space="preserve"
         transform="matrix(1.9378081,0,0,1.9908229,527.84007,-1505.4398)"><flowRegion
           id="flowRegion7460"><rect
             y="462.93817"
             x="305.06607"
             height="56.063465"
             width="201.52544"
             id="rect7462" /></flowRegion><flowPara
           id="flowPara7464" /></flowRoot>      <path
         sodipodi:nodetypes="csscssssssssssssscccsssssssssssssscssssssscsssssssssssssscssssssccssscssscscsccsscscss"
         inkscape:connector-curvature="0"
         id="path7514"
         d="m 1479.9453,-595.69207 c -66.9306,-11.48643 -143.6308,-52.8197 -193.9563,-104.5215 -58.287,-59.88179 -108.9922,-163.59898 -124.9784,-255.6429 -12.6247,-72.68963 -12.6014,-510.19663 0.026,-541.25193 14.487,-35.6201 36.5443,-46.2371 96.0616,-46.2371 64.2941,0 83.4028,5.4193 97.6204,27.6856 10.1038,15.8243 11.6182,43.9287 14.7586,273.88 3.487,255.34039 3.5576,256.40267 19.9359,300.45428 22.6667,60.96477 44.9436,88.63426 87.6667,108.8878 28.1539,13.34708 45.4709,16.91578 80.9479,16.68243 80.0212,-0.52674 131.6178,-42.0923 164.5774,-132.58287 12.7842,-35.09803 13.6588,-51.25665 15.5104,-286.57014 1.2785,-162.3723 4.4321,-255.7788 9.0412,-267.7309 9.4309,-24.456 37.8777,-38.5376 84.8373,-41.9955 49.4112,-3.6384 90.7773,8.9842 108.2681,33.0374 12.911,17.7548 13.4587,26.7441 15.3897,252.5494 2.5235,295.09046 -3.2619,341.22286 -56.221,448.29024 -80.6343,163.01922 -241.6728,245.58107 -419.4881,215.06569 z m 1751.2546,3.54681 c -7.0265,-1.67687 -28.585,-6.22476 -47.9081,-10.10621 -19.3228,-3.88156 -58.1282,-18.44687 -86.2345,-32.3678 -122.1583,-60.50419 -215.4874,-175.3809 -253.3437,-311.83503 -18.7513,-67.5892 -23.1593,-194.4365 -3.2926,-258.9227 50.1213,-162.6915 107.3714,-246.2214 258.2364,-317.4739 60.4274,-28.5397 259.5544,-27.6108 320.3184,-8.3025 99.6877,31.6766 185.907,86.414 185.907,124.7135 0,27.3546 -27.7082,77.26 -59.7343,107.5882 -43.5508,41.2417 -53.7994,41.7314 -121.8408,5.8209 -70.3914,-37.1505 -117.6688,-47.4877 -172.119,-37.6343 -137.6209,24.9046 -223.5209,148.249 -201.5888,289.4616 9.5166,61.27451 31.9217,106.40829 74.385,149.84592 61.5224,62.93322 126.0152,85.50078 210.0335,73.49528 82.3354,-11.76532 79.2319,-8.18798 79.2319,-91.33185 l 0,-71.6416 -73.3226,-2.39131 c -93.1094,-3.03628 -99.5721,-7.94208 -104.0074,-78.94354 -4.0718,-65.1849 7.261,-93.6938 41.0805,-103.3417 13.6934,-3.9063 83.5221,-6.9908 158.6067,-7.0055 146.785,-0.027 169.8833,4.8379 186.6584,39.3281 12.4292,25.5557 11.426,374.8031 -1.1483,399.78455 -25.0407,49.74838 -114.3902,108.38287 -195.6549,128.39588 -40.9091,10.07491 -170.1037,18.63013 -194.2622,12.86401 z m 725.1147,-6.62303 c -98.013,-21.8259 -176.6211,-75.34256 -224.4309,-152.79346 -30.0767,-48.72294 -24.931,-78.749 22.4792,-131.17241 53.2803,-58.91421 91.4096,-54.33367 169.3979,20.35066 62.0451,59.41584 106.3366,74.62333 166.9526,57.32338 47.0081,-13.41606 78.4186,-77.25704 57.6386,-117.14732 -10.6795,-20.50082 -50.1051,-38.8339 -123.7959,-57.56576 -114.3581,-29.0692 -209.9235,-77.0112 -242.5282,-121.6682 -61.2786,-83.9306 -71.8479,-205.9575 -25.9167,-299.2223 69.4587,-141.0387 249.7436,-179.2844 435.2147,-116.8324 70.4268,23.714 128.9834,68.0601 128.9834,108.6173 0,47.5971 -73.2632,131.3145 -114.9168,131.3145 -17.721,0 -62.1217,-23.5255 -87.7574,-46.4972 -23.6547,-21.1968 -53.8295,-28.7616 -95.4846,-23.938 -35.9428,4.1621 -60.0559,21.9438 -71.4444,52.6852 -7.7479,20.9132 -7.3972,26.2127 3.1894,48.1984 15.1284,31.4183 50.1318,49.7973 123.1826,64.6778 120.0692,24.4588 202.2002,58.934 236.7725,99.3869 37.0259,43.3239 53.4093,89.51574 56.4637,159.19818 3.2136,73.30636 -5.7145,121.00674 -32.3508,172.84334 -61.13,118.96514 -229.4903,186.1246 -381.6489,152.24139 z m -1891.6183,-42.01167 c -2.0828,-38.50805 -8.7703,-826.39954 3.4023,-856.32844 18.1155,-44.5427 24.654,-45.9946 217.6937,-48.3362 188.0822,-2.2812 228.4047,2.4786 289.1252,34.13 83.7135,43.6361 139.9764,105.4633 169.8442,186.6391 11.5251,31.3232 13.6735,50.8743 13.4713,122.5796 -0.2063,73.2837 -2.2691,90.3036 -14.6249,120.7116 -23.4488,57.7064 -58.2666,105.49857 -99.7143,136.87175 -85.6155,64.80499 -138.319,80.09805 -276.6347,80.27119 l -91.0256,0.11935 0,98.01028 c 0,53.90551 -0.9078,115.89737 -2.6232,130.33575 -1.9081,28.74575 -3.4076,56.5621 -24.1692,56.5621 -48.4328,0 -128.249,-0.65144 -152.125,-0.8969 -28.2744,0 -32.164,-37.62324 -32.6198,-60.66327 z m 398.1797,-453.32354 c 109.5755,-31.2645 108.4834,-192.4384 -1.5099,-222.8668 -13.795,-3.8163 -60.3747,-6.1087 -103.5105,-5.0945 l -78.4286,1.844 -1.7616,108.0294 c -0.9686,59.416 -0.3397,111.8341 1.3963,116.4843 3.9507,10.5762 147.9637,11.8327 183.8143,1.6036 z"
         style="fill:#181818;fill-opacity:1" />
      <rect
         transform="matrix(0.99999307,-0.00372173,0.00352615,0.99999378,0,0)"
         ry="177.26707"
         y="-3311.1934"
         x="1631.3644"
         height="1484.6115"
         width="523.03198"
         id="rect6433"
         style="fill:#323232;fill-opacity:1;stroke:none" />
      <rect
         transform="matrix(-0.00148846,0.99999889,-0.99999877,-0.00157023,0,0)"
         ry="172.58937"
         y="-2597.2087"
         x="-2851.6116"
         height="1445.4358"
         width="537.34094"
         id="rect6433-1"
         style="fill:#323232;fill-opacity:1;stroke:none" />
      <path
         transform="matrix(5.5153737,-5.4966158,10.500423,10.46471,-683.16369,-1774.3958)"
         d="m 457.14285,142.66591 a 35.357143,18.571428 0 1 1 -70.71429,0 35.357143,18.571428 0 1 1 70.71429,0 z"
         sodipodi:ry="18.571428"
         sodipodi:rx="35.357143"
         sodipodi:cy="142.66591"
         sodipodi:cx="421.78571"
         id="path5393-6-1-2"
         style="fill:#939740;fill-opacity:1;stroke:none"
         sodipodi:type="arc" />
      <path
         transform="matrix(5.5153737,-5.4966158,10.500423,10.46471,-211.44423,-1299.0713)"
         d="m 457.14285,142.66591 a 35.357143,18.571428 0 1 1 -70.71429,0 35.357143,18.571428 0 1 1 70.71429,0 z"
         sodipodi:ry="18.571428"
         sodipodi:rx="35.357143"
         sodipodi:cy="142.66591"
         sodipodi:cx="421.78571"
         id="path5393-6-1-2-1"
         style="fill:#4c79ba;fill-opacity:1;stroke:none"
         sodipodi:type="arc" />
      <path
         transform="matrix(5.5153737,-5.4966158,10.500423,10.46471,-213.82937,-2240.6532)"
         d="m 457.14285,142.66591 a 35.357143,18.571428 0 1 1 -70.71429,0 35.357143,18.571428 0 1 1 70.71429,0 z"
         sodipodi:ry="18.571428"
         sodipodi:rx="35.357143"
         sodipodi:cy="142.66591"
         sodipodi:cx="421.78571"
         id="path5393"
         style="fill:#f2a216;fill-opacity:1;stroke:none"
         sodipodi:type="arc" />
      <path
         transform="matrix(5.5153737,-5.4966158,10.500423,10.46471,263.65483,-1767.6657)"
         d="m 457.14285,142.66591 a 35.357143,18.571428 0 1 1 -70.71429,0 35.357143,18.571428 0 1 1 70.71429,0 z"
         sodipodi:ry="18.571428"
         sodipodi:rx="35.357143"
         sodipodi:cy="142.66591"
         sodipodi:cx="421.78571"
         id="path5393-8"
         style="fill:#af4120;fill-opacity:1;stroke:none"
         sodipodi:type="arc" />
    </g>
  </g>
</svg>
