<?xml version="1.0" encoding="UTF-8" standalone="no"?>
<!-- Created with Inkscape (http://www.inkscape.org/) -->

<svg
   xmlns:dc="http://purl.org/dc/elements/1.1/"
   xmlns:cc="http://creativecommons.org/ns#"
   xmlns:rdf="http://www.w3.org/1999/02/22-rdf-syntax-ns#"
   xmlns:svg="http://www.w3.org/2000/svg"
   xmlns="http://www.w3.org/2000/svg"
   xmlns:sodipodi="http://sodipodi.sourceforge.net/DTD/sodipodi-0.dtd"
   xmlns:inkscape="http://www.inkscape.org/namespaces/inkscape"
   width="500"
   height="500"
   id="svg2983"
   version="1.1"
   inkscape:version="0.48.3.1 r9886"
   inkscape:export-filename="/home/zac/web/gottagofast/img/profile-images/500x500dark.png"
   inkscape:export-xdpi="90"
   inkscape:export-ydpi="90"
   sodipodi:docname="500x500.svg">
  <defs
     id="defs2985" />
  <sodipodi:namedview
     id="base"
     pagecolor="#ffffff"
     bordercolor="#666666"
     borderopacity="1.0"
     inkscape:pageopacity="0.0"
     inkscape:pageshadow="2"
     inkscape:zoom="0.25"
     inkscape:cx="-335.41223"
     inkscape:cy="258.6764"
     inkscape:current-layer="layer1-1"
     showgrid="true"
     inkscape:grid-bbox="true"
     inkscape:document-units="px"
     showguides="false"
     inkscape:guide-bbox="true"
     inkscape:window-width="1366"
     inkscape:window-height="741"
     inkscape:window-x="0"
     inkscape:window-y="-5"
     inkscape:window-maximized="1">
    <sodipodi:guide
       orientation="1,0"
       position="1.8470297,10.068564"
       id="guide3124" />
    <sodipodi:guide
       orientation="1,0"
       position="14.190594,7.4106436"
       id="guide3126" />
  </sodipodi:namedview>
  <metadata
     id="metadata2988">
    <rdf:RDF>
      <cc:Work
         rdf:about="">
        <dc:format>image/svg+xml</dc:format>
        <dc:type
           rdf:resource="http://purl.org/dc/dcmitype/StillImage" />
        <dc:title></dc:title>
      </cc:Work>
    </rdf:RDF>
  </metadata>
  <g
     id="layer1"
     inkscape:label="Layer 1"
     inkscape:groupmode="layer"
     transform="translate(0,484)">
    <g
       transform="matrix(0.04969892,0,0,0.04969892,-12.230991,-11.586426)"
       id="layer1-1"
       inkscape:label="Layer 1">
      <rect
         style="fill:#212121;fill-opacity:1;stroke:none"
         id="rect4497"
         width="11589.789"
         height="11348.335"
         x="-478.26007"
         y="-10431.084" />
      <flowRoot
         transform="matrix(4.9308991,0,0,5.0657992,-199.01316,-2505.8217)"
         style="font-size:40px;font-style:normal;font-weight:normal;line-height:125%;letter-spacing:0px;word-spacing:0px;fill:#000000;fill-opacity:1;stroke:none;font-family:Sans"
         id="flowRoot5331"
         xml:space="preserve"><flowRegion
           id="flowRegion5333"><rect
             y="252.36218"
             x="372.85715"
             height="170.00002"
             width="1185.7142"
             id="rect5335" /></flowRegion><flowPara
           style="font-size:72px;font-style:normal;font-variant:normal;font-weight:normal;font-stretch:normal;text-align:start;line-height:100%;writing-mode:tb-rl;text-anchor:start;font-family:Sawasdee;-inkscape-font-specification:Sawasdee"
           id="flowPara5337">GAMING</flowPara><flowPara
           id="flowPara5485"
           style="font-size:72px;font-style:normal;font-variant:normal;font-weight:normal;font-stretch:normal;text-align:start;line-height:100%;writing-mode:tb-rl;text-anchor:start;font-family:Sawasdee;-inkscape-font-specification:Sawasdee">SOCIETY</flowPara></flowRoot>      <flowRoot
         style="font-size:40px;font-style:normal;font-variant:normal;font-weight:normal;font-stretch:normal;text-align:start;line-height:125%;letter-spacing:0px;word-spacing:0px;writing-mode:lr-tb;text-anchor:start;fill:#000000;fill-opacity:1;stroke:none;font-family:Sans;-inkscape-font-specification:Sans"
         id="flowRoot5487"
         xml:space="preserve"
         transform="matrix(4.9308991,0,0,5.0657992,-269.45452,-3938.7193)"><flowRegion
           id="flowRegion5489"><rect
             y="184.46997"
             x="400.02042"
             height="202.0305"
             width="371.73615"
             id="rect5491" /></flowRegion><flowPara
           id="flowPara5493" /></flowRoot>      <flowRoot
         style="font-size:40px;font-style:normal;font-variant:normal;font-weight:normal;font-stretch:normal;text-align:start;line-height:125%;letter-spacing:0px;word-spacing:0px;writing-mode:lr-tb;text-anchor:start;fill:#000000;fill-opacity:1;stroke:none;font-family:Sans;-inkscape-font-specification:Sans"
         id="flowRoot5537"
         xml:space="preserve"
         transform="matrix(4.9308991,0,0,5.0657992,-269.45452,-3938.7193)"><flowRegion
           id="flowRegion5539"><rect
             y="44.808769"
             x="213.57143"
             height="316.42856"
             width="85"
             id="rect5541" /></flowRegion><flowPara
           id="flowPara5543" /></flowRoot>      <flowRoot
         transform="matrix(4.9308991,0,0,5.0657992,-1266.4471,-1323.813)"
         style="font-size:40px;font-style:normal;font-weight:normal;line-height:125%;letter-spacing:0px;word-spacing:0px;fill:#000000;fill-opacity:1;stroke:none;font-family:Sans"
         id="flowRoot5331-4"
         xml:space="preserve"><flowRegion
           id="flowRegion5333-5"><rect
             y="252.36218"
             x="372.85715"
             height="170.00002"
             width="1185.7142"
             id="rect5335-0" /></flowRegion><flowPara
           style="font-size:72px;font-style:normal;font-variant:normal;font-weight:normal;font-stretch:normal;text-align:start;line-height:100%;writing-mode:tb-rl;text-anchor:start;font-family:Sawasdee;-inkscape-font-specification:Sawasdee"
           id="flowPara5337-3">GAMING</flowPara><flowPara
           id="flowPara5485-5"
           style="font-size:72px;font-style:normal;font-variant:normal;font-weight:normal;font-stretch:normal;text-align:start;line-height:100%;writing-mode:tb-rl;text-anchor:start;font-family:Sawasdee;-inkscape-font-specification:Sawasdee">SOCIETY</flowPara></flowRoot>      <flowRoot
         style="font-size:40px;font-style:normal;font-variant:normal;font-weight:normal;font-stretch:normal;text-align:start;line-height:125%;letter-spacing:0px;word-spacing:0px;writing-mode:lr-tb;text-anchor:start;fill:#000000;fill-opacity:1;stroke:none;font-family:Sans;-inkscape-font-specification:Sans"
         id="flowRoot5487-8"
         xml:space="preserve"
         transform="matrix(4.9308991,0,0,5.0657992,-1336.8884,-2756.7102)"><flowRegion
           id="flowRegion5489-3"><rect
             y="184.46997"
             x="400.02042"
             height="202.0305"
             width="371.73615"
             id="rect5491-7" /></flowRegion><flowPara
           id="flowPara5493-3" /></flowRoot>      <flowRoot
         style="font-size:40px;font-style:normal;font-variant:normal;font-weight:normal;font-stretch:normal;text-align:start;line-height:125%;letter-spacing:0px;word-spacing:0px;writing-mode:lr-tb;text-anchor:start;fill:#000000;fill-opacity:1;stroke:none;font-family:Sans;-inkscape-font-specification:Sans"
         id="flowRoot5537-3"
         xml:space="preserve"
         transform="matrix(4.9308991,0,0,5.0657992,-1336.8884,-2756.7102)"><flowRegion
           id="flowRegion5539-3"><rect
             y="44.808769"
             x="213.57143"
             height="316.42856"
             width="85"
             id="rect5541-1" /></flowRegion><flowPara
           id="flowPara5543-5" /></flowRoot>      <flowRoot
         style="font-size:40px;font-style:normal;font-variant:normal;font-weight:normal;font-stretch:normal;text-align:start;line-height:125%;letter-spacing:0px;word-spacing:0px;writing-mode:lr-tb;text-anchor:start;fill:#000000;fill-opacity:1;stroke:none;font-family:Sans;-inkscape-font-specification:Sans"
         id="flowRoot7458"
         xml:space="preserve"
         transform="matrix(4.9308991,0,0,5.0657992,-406.68034,-3318.3678)"><flowRegion
           id="flowRegion7460"><rect
             y="462.93817"
             x="305.06607"
             height="56.063465"
             width="201.52544"
             id="rect7462" /></flowRegion><flowPara
           id="flowPara7464" /></flowRoot>      <path
         sodipodi:nodetypes="csscssssssssssssscccsssssssssssssscssssssscsssssssssssssscssssssccssscssscscsccsscscss"
         inkscape:connector-curvature="0"
         id="path7514"
         d="m 2016.0233,-1003.446 c -170.31,-29.2281 -365.4794,-134.4037 -493.5365,-265.9628 -148.3156,-152.3738 -277.3389,-416.29 -318.0169,-650.5027 -32.1246,-184.9643 -32.0653,-1298.2339 0.066,-1377.2564 36.8633,-90.638 92.9897,-117.6538 244.436,-117.6538 163.6012,0 212.2247,13.7898 248.4025,70.4481 25.7099,40.2661 29.5634,111.7799 37.5544,696.9083 8.8729,649.7329 9.0525,652.436 50.7284,764.5286 57.6771,155.1295 114.3623,225.5366 223.0745,277.0733 71.6397,33.9626 115.7041,43.0435 205.978,42.4497 203.62,-1.3403 334.9115,-107.1071 418.7797,-337.3671 32.5303,-89.3096 34.7558,-130.4265 39.4674,-729.1994 3.2532,-413.1686 11.2778,-650.8485 23.006,-681.2615 23.9976,-62.2301 96.3826,-98.0618 215.8749,-106.8607 125.7305,-9.2582 230.9897,22.8609 275.4963,84.0661 32.8531,45.1785 34.2467,68.0524 39.1603,642.6311 6.4212,750.8799 -8.3002,868.2673 -143.0586,1140.7083 -205.18,414.8147 -614.9547,624.8996 -1067.4191,547.2509 z m 4456.1996,9.02514 c -17.8795,-4.26693 -72.7367,-15.83934 -121.9058,-25.71604 -49.1683,-9.8769 -147.9116,-46.9394 -219.4302,-82.3623 -310.841,-153.9575 -548.324,-446.2699 -644.6522,-793.4878 -47.7141,-171.9858 -58.9306,-494.7583 -8.3782,-658.8483 127.5374,-413.9808 273.2146,-626.529 657.102,-807.8363 153.7621,-72.6215 660.4557,-70.2578 815.0743,-21.1264 253.6629,80.6035 473.0544,219.887 473.0544,317.3429 0,69.6059 -70.5056,196.5939 -151.9984,273.7663 -110.8183,104.9427 -136.8966,106.1887 -310.0331,14.8118 -179.1162,-94.5323 -299.4172,-120.8361 -437.9698,-95.7634 -350.1868,63.3717 -568.7658,377.2308 -512.9579,736.5569 24.2157,155.9177 81.2271,270.764 189.2782,381.2943 156.5484,160.1383 320.6552,217.5632 534.4461,187.0143 209.5087,-29.9378 201.6116,-20.8349 201.6116,-232.4008 l 0,-182.2975 -186.5749,-6.0848 c -236.9239,-7.7261 -253.3688,-20.2093 -264.6547,-200.8778 -10.361,-165.8679 18.4762,-238.411 104.5324,-262.9608 34.8439,-9.9399 212.5283,-17.7886 403.5868,-17.826 373.5055,-0.069 432.2808,12.3104 474.9664,100.0733 31.627,65.0284 29.0743,953.7148 -2.922,1017.282 -63.7179,126.5885 -291.0745,275.7884 -497.8587,326.713 -104.0963,25.6364 -432.8417,47.40576 -494.3148,32.73344 z m 1845.1091,-16.85284 c -249.4015,-55.5376 -449.4257,-191.7148 -571.0814,-388.7945 -76.5324,-123.9792 -63.4388,-200.3827 57.2,-333.7781 135.5758,-149.9116 232.5987,-138.2561 431.0458,51.7838 157.8784,151.1881 270.5815,189.8847 424.8235,145.8637 119.6157,-34.1382 199.542,-196.5864 146.6658,-298.0902 -27.1748,-52.1659 -127.4962,-98.8158 -315.0081,-146.4804 -290.9928,-73.9688 -534.1662,-195.9608 -617.1313,-309.5939 -155.928,-213.5678 -182.8224,-524.0745 -65.947,-761.3938 176.7429,-358.8836 635.4915,-456.2027 1107.4367,-297.2889 179.2063,60.3421 328.208,173.1841 328.208,276.385 0,121.1144 -186.4237,334.1396 -292.4145,334.1396 -45.0924,0 -158.0733,-59.8624 -223.3053,-118.3156 -60.1912,-53.9369 -136.9732,-73.1861 -242.9678,-60.9121 -91.4592,10.5908 -152.8168,55.8377 -181.7957,134.0615 -19.7151,53.2152 -18.8227,66.7002 8.1157,122.6445 38.4954,79.9462 127.5642,126.713 313.4474,164.5775 305.5252,62.2373 514.5137,149.962 602.4856,252.8975 94.2152,110.2409 135.9039,227.7796 143.6761,405.0918 8.1772,186.5336 -14.541,307.9108 -82.3191,439.8129 -155.5499,302.7158 -583.9554,473.60812 -971.1344,387.3897 z m -4813.3656,-106.9018 c -5.2999,-97.9867 -22.3167,-2102.8361 8.6574,-2178.9924 46.0962,-113.3423 62.7339,-117.0367 553.938,-122.9951 478.5894,-5.8047 581.193,6.307 735.7009,86.8463 213.0154,111.0354 356.1806,268.3594 432.1814,474.9173 29.3265,79.7043 34.7933,129.4535 34.2788,311.9131 -0.525,186.4759 -5.7739,229.7843 -37.2142,307.1598 -59.6672,146.8383 -148.2637,268.449 -253.7306,348.2805 -217.8551,164.9012 -351.9631,203.8155 -703.9178,204.2561 l -231.6216,0.3037 0,249.3945 c 0,137.1667 -2.3099,294.9096 -6.6749,331.6492 -4.8553,73.1457 -8.6709,143.92651 -61.5003,143.92651 -123.241,0 -326.3393,-1.65764 -387.0936,-2.28223 -71.9463,0 -81.8437,-95.73518 -83.0035,-154.36228 z m 1013.1983,-1153.516 c 278.8231,-79.5549 276.0442,-489.674 -3.8421,-567.1014 -35.1024,-9.7109 -153.628,-15.5441 -263.3903,-12.9634 l -199.5675,4.6922 -4.4825,274.889 c -2.4647,151.1885 -0.8644,284.5703 3.553,296.4031 10.0529,26.912 376.5048,30.1092 467.7294,4.0805 z"
         style="fill:#f3f3f3;fill-opacity:1" />
      <rect
         transform="matrix(0.99999307,-0.00372173,0.00352615,0.99999378,0,0)"
         ry="451.06946"
         y="-7919.7598"
         x="2399.5249"
         height="3777.7061"
         width="1330.8944"
         id="rect6433"
         style="fill:#b9b9b9;fill-opacity:1;stroke:none" />
      <rect
         transform="matrix(-0.00148846,0.99999889,-0.99999877,-0.00157023,0,0)"
         ry="439.16669"
         y="-4859.7495"
         x="-6741.0566"
         height="3678.0205"
         width="1367.3046"
         id="rect6433-1"
         style="fill:#b9b9b9;fill-opacity:1;stroke:none" />
      <path
         transform="matrix(14.034285,-13.986554,26.719119,26.628245,-3488.1709,-4002.7466)"
         d="m 457.14285,142.66591 c 0,10.25672 -15.82993,18.57143 -35.35714,18.57143 -19.52722,0 -35.35715,-8.31471 -35.35715,-18.57143 0,-10.25672 15.82993,-18.57143 35.35715,-18.57143 19.52721,0 35.35714,8.31471 35.35714,18.57143 z"
         sodipodi:ry="18.571428"
         sodipodi:rx="35.357143"
         sodipodi:cy="142.66591"
         sodipodi:cx="421.78571"
         id="path5393-6-1-2"
         style="fill:#939740;fill-opacity:1;stroke:none"
         sodipodi:type="arc" />
      <path
         transform="matrix(14.034285,-13.986554,26.719119,26.628245,-2287.8451,-2793.2476)"
         d="m 457.14285,142.66591 c 0,10.25672 -15.82993,18.57143 -35.35714,18.57143 -19.52722,0 -35.35715,-8.31471 -35.35715,-18.57143 0,-10.25672 15.82993,-18.57143 35.35715,-18.57143 19.52721,0 35.35714,8.31471 35.35714,18.57143 z"
         sodipodi:ry="18.571428"
         sodipodi:rx="35.357143"
         sodipodi:cy="142.66591"
         sodipodi:cx="421.78571"
         id="path5393-6-1-2-1"
         style="fill:#4c79ba;fill-opacity:1;stroke:none"
         sodipodi:type="arc" />
      <path
         transform="matrix(14.034285,-13.986554,26.719119,26.628245,-2293.9143,-5189.1738)"
         d="m 457.14285,142.66591 c 0,10.25672 -15.82993,18.57143 -35.35714,18.57143 -19.52722,0 -35.35715,-8.31471 -35.35715,-18.57143 0,-10.25672 15.82993,-18.57143 35.35715,-18.57143 19.52721,0 35.35714,8.31471 35.35714,18.57143 z"
         sodipodi:ry="18.571428"
         sodipodi:rx="35.357143"
         sodipodi:cy="142.66591"
         sodipodi:cx="421.78571"
         id="path5393"
         style="fill:#f2a216;fill-opacity:1;stroke:none"
         sodipodi:type="arc" />
      <path
         transform="matrix(14.034285,-13.986554,26.719119,26.628245,-1078.9197,-3985.6214)"
         d="m 457.14285,142.66591 c 0,10.25672 -15.82993,18.57143 -35.35714,18.57143 -19.52722,0 -35.35715,-8.31471 -35.35715,-18.57143 0,-10.25672 15.82993,-18.57143 35.35715,-18.57143 19.52721,0 35.35714,8.31471 35.35714,18.57143 z"
         sodipodi:ry="18.571428"
         sodipodi:rx="35.357143"
         sodipodi:cy="142.66591"
         sodipodi:cx="421.78571"
         id="path5393-8"
         style="fill:#af4120;fill-opacity:1;stroke:none"
         sodipodi:type="arc" />
    </g>
  </g>
</svg>
