<?xml version="1.0" encoding="UTF-8" standalone="no"?>
<!-- Created with Inkscape (http://www.inkscape.org/) -->

<svg
   xmlns:dc="http://purl.org/dc/elements/1.1/"
   xmlns:cc="http://creativecommons.org/ns#"
   xmlns:rdf="http://www.w3.org/1999/02/22-rdf-syntax-ns#"
   xmlns:svg="http://www.w3.org/2000/svg"
   xmlns="http://www.w3.org/2000/svg"
   xmlns:xlink="http://www.w3.org/1999/xlink"
   xmlns:sodipodi="http://sodipodi.sourceforge.net/DTD/sodipodi-0.dtd"
   xmlns:inkscape="http://www.inkscape.org/namespaces/inkscape"
   id="svg2"
   version="1.1"
   inkscape:version="0.48.3.1 r9886"
   width="512"
   height="512"
   xml:space="preserve"
   sodipodi:docname="google.svg"
   inkscape:export-filename="/home/zac/web/gottagofast/img/google.png"
   inkscape:export-xdpi="90"
   inkscape:export-ydpi="90"><metadata
     id="metadata8"><rdf:RDF><cc:Work
         rdf:about=""><dc:format>image/svg+xml</dc:format><dc:type
           rdf:resource="http://purl.org/dc/dcmitype/StillImage" /><dc:title></dc:title></cc:Work></rdf:RDF></metadata><defs
     id="defs6"><linearGradient
       id="linearGradient3069"
       spreadMethod="pad"
       gradientTransform="matrix(0,-74.000427,-74.000427,0,14.219238,58.359863)"
       gradientUnits="userSpaceOnUse"
       y2="0"
       x2="1"
       y1="0"
       x1="0"><stop
         id="stop3071"
         offset="0"
         style="stop-opacity:1;stop-color:#ffffff" /><stop
         id="stop3073"
         offset="1"
         style="stop-opacity:1;stop-color:#f9dad6" /></linearGradient><clipPath
       id="clipPath3061"
       clipPathUnits="userSpaceOnUse"><path
         id="path3063"
         d="M -10.4873,60 65,60 l 0,-75.541 -75.4873,0 0,75.541 z"
         inkscape:connector-curvature="0" /></clipPath><mask
       id="mask3037"
       height="1"
       width="1"
       y="0"
       x="0"
       maskUnits="userSpaceOnUse"><g
         id="g3039"><g
           id="g3041"
           clip-path="url(#clipPath3029)"><path
             id="path3043"
             style="fill:#000000;fill-opacity:1;fill-rule:nonzero;stroke:none"
             d="M -10.487,60 65,60 l 0,-75.541 -75.487,0 0,75.541 z"
             inkscape:connector-curvature="0" /><g
             id="g3045"><g
               id="g3047" /><g
               id="g3049"><g
                 id="g3051"
                 clip-path="url(#clipPath3033)"><g
                   id="g3053"
                   transform="translate(64,8)"><path
                     id="path3055"
                     style="fill:#f5f5f5;fill-opacity:1;fill-rule:nonzero;stroke:none"
                     d="m 0,0 c 0,-4.418 -3.582,-8 -8,-8 l -48,0 c -4.418,0 -8,3.582 -8,8 l 0,48 c 0,4.418 3.582,8 8,8 l 48,0 c 4.418,0 8,-3.582 8,-8 L 0,0 z"
                     inkscape:connector-curvature="0" /></g></g></g></g></g></g></mask><clipPath
       id="clipPath3033"
       clipPathUnits="userSpaceOnUse"><path
         id="path3035"
         d="M -10.4873,60 65,60 l 0,-75.541 -75.4873,0 0,75.541 z"
         inkscape:connector-curvature="0" /></clipPath><clipPath
       id="clipPath3029"
       clipPathUnits="userSpaceOnUse"><path
         id="path3031"
         d="M -10.4873,60 65,60 l 0,-75.541 -75.4873,0 0,75.541 z"
         inkscape:connector-curvature="0" /></clipPath><clipPath
       id="clipPath3021"
       clipPathUnits="userSpaceOnUse"><path
         id="path3023"
         d="M 0,64 64,64 64,0 0,0 0,64 z"
         inkscape:connector-curvature="0" /></clipPath><linearGradient
       id="linearGradient3009"
       spreadMethod="pad"
       gradientTransform="matrix(0,63.850372,63.850372,0,32.000488,0)"
       gradientUnits="userSpaceOnUse"
       y2="0"
       x2="1"
       y1="0"
       x1="0"><stop
         id="stop3011"
         offset="0"
         style="stop-opacity:1;stop-color:#a5281a" /><stop
         id="stop3013"
         offset="1"
         style="stop-opacity:1;stop-color:#da4a38" /></linearGradient><linearGradient
       inkscape:collect="always"
       xlink:href="#linearGradient3069-1"
       id="linearGradient3174-3"
       gradientUnits="userSpaceOnUse"
       gradientTransform="matrix(0,-74.000427,-74.000427,0,14.219238,58.359863)"
       spreadMethod="pad"
       x1="0"
       y1="0"
       x2="1"
       y2="0" /><linearGradient
       id="linearGradient3069-1"
       spreadMethod="pad"
       gradientTransform="matrix(0,-74.000427,-74.000427,0,14.219238,58.359863)"
       gradientUnits="userSpaceOnUse"
       y2="0"
       x2="1"
       y1="0"
       x1="0"><stop
         id="stop3071-0"
         offset="0"
         style="stop-opacity:1;stop-color:#ffffff" /><stop
         id="stop3073-3"
         offset="1"
         style="stop-opacity:1;stop-color:#f9dad6" /></linearGradient></defs><sodipodi:namedview
     pagecolor="#ffffff"
     bordercolor="#666666"
     borderopacity="1"
     objecttolerance="10"
     gridtolerance="10"
     guidetolerance="10"
     inkscape:pageopacity="0"
     inkscape:pageshadow="2"
     inkscape:window-width="793"
     inkscape:window-height="480"
     id="namedview4"
     showgrid="false"
     inkscape:zoom="0.31786137"
     inkscape:cx="259.36262"
     inkscape:cy="355.32523"
     inkscape:window-x="0"
     inkscape:window-y="27"
     inkscape:window-maximized="0"
     inkscape:current-layer="g2995" /><g
     id="g10"
     inkscape:groupmode="layer"
     inkscape:label="Google Drive Huge Icon Pack Vector Corel Draw AI"
     transform="matrix(1.25,0,0,-1.25,0,512.00002)"><g
       transform="translate(277.66098,306.13557)"
       inkscape:label="new-g-plus-icon-vector"
       id="g2995"><rect
         style="fill:#ffffff;fill-opacity:1;stroke:none"
         id="rect3996"
         width="26.64522"
         height="102.43102"
         x="7.9421501"
         y="-38.645039"
         transform="scale(1,-1)" /><rect
         style="fill:#ffffff;fill-opacity:1;stroke:none"
         id="rect3998"
         width="102.27979"
         height="26.467144"
         x="-29.96973"
         y="-0.59038144"
         transform="scale(1,-1)" /><g
         id="g2999"><g
           id="g3005"><g
             id="g3007" /></g></g><path
         inkscape:connector-curvature="0"
         d="m -134.16936,23.192227 c -8.20945,0 -15.4797,-3.34614 -21.03506,-9.67719 -8.02693,-9.152459 -11.45292,-23.381159 -9.3958,-39.035769 3.55527,-27.01628 23.04273,-47.89544 45.33639,-48.56467 l 1.07229,-0.019 c 8.34634,0 15.40365,3.01533 20.400048,8.71137 7.026895,8.00793 9.776053,20.95521 7.741752,36.45012 -3.821445,29.08845 -22.40393,51.496189 -43.21845,52.119788 l -0.90117,0.01521 z m 9.45284,-160.782027 c -31.65524,0 -58.40537,-19.997 -58.40537,-43.67474 0,-24.79947 24.2025,-44.21849 55.10106,-44.21849 39.803862,0 60.846527,14.8447 60.846527,42.93327 0,2.79098 -0.338417,5.639 -1.003843,8.4528 -2.92407,11.43772 -13.331327,18.47602 -27.738747,28.22166 -2.368915,1.60462 -4.829087,3.26628 -7.361507,5.02681 -6.54019,2.08754 -13.47582,3.18644 -20.62059,3.25869 l -0.81753,0 z m -3.1294,-105.46427 c -52.25684,0 -90.1861,22.08833 -90.1861,52.5192 0,32.10774 33.47281,66.48553 83.2999,66.48553 2.63508,0 5.1561,0.0304 7.64669,0.0646 0.90878,0.0152 1.81376,0.0228 2.71874,0.038 -4.90894,5.04963 -9.16767,10.7761 -9.16767,19.62816 0,4.479258 1.06469,9.163848 3.16363,13.962508 -1.76813,-0.0874 -3.34234,-0.12548 -4.87852,-0.12548 -38.35894,0 -64.13564,25.79951 -64.13564,64.20027 0,35.510918 36.7239,66.664246 78.58108,66.664246 l 86.862765,0 -22.038898,-23.130196 -16.270608,0 c 12.065118,-9.582129 19.103421,-25.81091 19.103421,-44.709 0,-16.97025 -8.673349,-32.71993 -25.084647,-45.54934 -13.745796,-10.7342 -15.821924,-14.7876 -15.821924,-23.16435 0,-6.357658 14.650775,-17.259228 21.69288,-22.495178 l 1.81376,-1.35366 c 28.214048,-21.16434 32.76556,-34.72382 32.76556,-59.00995 0,-31.47273 -33.685748,-64.02536 -90.064419,-64.02536"
         style="fill:#ffffff;fill-opacity:1;stroke:none"
         id="path3095" /></g></g></svg>