<?xml version="1.0" encoding="UTF-8" standalone="no"?>
<!-- Created with Inkscape (http://www.inkscape.org/) -->

<svg
   xmlns:dc="http://purl.org/dc/elements/1.1/"
   xmlns:cc="http://creativecommons.org/ns#"
   xmlns:rdf="http://www.w3.org/1999/02/22-rdf-syntax-ns#"
   xmlns:svg="http://www.w3.org/2000/svg"
   xmlns="http://www.w3.org/2000/svg"
   xmlns:sodipodi="http://sodipodi.sourceforge.net/DTD/sodipodi-0.dtd"
   xmlns:inkscape="http://www.inkscape.org/namespaces/inkscape"
   version="1.1"
   width="300"
   height="300"
   id="svg3040"
   inkscape:version="0.48.4 r9939"
   sodipodi:docname="psn.svg"
   inkscape:export-filename="/var/www/gottagofast/public/img/xbox.png"
   inkscape:export-xdpi="90"
   inkscape:export-ydpi="90">
  <sodipodi:namedview
     pagecolor="#ffffff"
     bordercolor="#666666"
     borderopacity="1"
     objecttolerance="10"
     gridtolerance="10"
     guidetolerance="10"
     inkscape:pageopacity="0"
     inkscape:pageshadow="2"
     inkscape:window-width="1111"
     inkscape:window-height="480"
     id="namedview7"
     showgrid="false"
     inkscape:zoom="0.39333333"
     inkscape:cx="42.310053"
     inkscape:cy="150.62596"
     inkscape:window-x="0"
     inkscape:window-y="27"
     inkscape:window-maximized="0"
     inkscape:current-layer="svg3040" />
  <metadata
     id="metadata3046">
    <rdf:RDF>
      <cc:Work
         rdf:about="">
        <dc:format>image/svg+xml</dc:format>
        <dc:type
           rdf:resource="http://purl.org/dc/dcmitype/StillImage" />
        <dc:title />
      </cc:Work>
    </rdf:RDF>
  </metadata>
  <defs
     id="defs3044" />
  <g
     id="g3864"
     transform="matrix(0.09126247,0,0,0.09126247,323.25394,203.94691)"
     style="fill:#ffffff;fill-rule:evenodd;fill-opacity:1;stroke:none">
    <path
       style="fill:#ffffff;fill-rule:evenodd;fill-opacity:1;stroke:none"
       d="m -1832.4019,180.0581 c -19.4998,-6.1581 -307.9097,-105.8112 -308.8572,-106.7182 -1.1384,-1.0899 -1.5291,-116.8573 -2.4242,-718.43212 -0.7275,-488.88178 -0.7415,-717.45848 -0.044,-718.15598 0.6974,-0.6974 63.8525,16.5159 198.4242,54.082 221.8788,61.938 219.2057,61.1734 249.4012,71.3466 117.4323,39.5644 207.5236,95.8541 266.7159,166.646 45.7065,54.6634 74.6955,119.80424 86.2947,193.91188 6.538,41.77148 7.2958,103.79189 1.9131,156.58812 -17.2109,168.81527 -89.9958,259.5 -208.2783,259.5 -42.1492,0 -93.836,-12.7629 -143.3954,-35.40827 l -7.75,-3.54124 0,-266.45288 c 0,-185.26034 -0.3289,-268.81791 -1.0795,-274.21431 -3.7759,-27.1477 -23.8409,-53.3871 -50.4205,-65.9361 -36.1182,-17.0524 -64.055,-3.7765 -72.7106,34.5528 l -2.1453,9.5 -0.6853,550 c -0.9377,752.5328 -0.7454,692.2075 -2.2088,692.7457 -0.6875,0.2528 -1.925,0.2465 -2.75,-0.014 z m 63.3654,-23.9121 c -0.8717,-3.4729 0.5433,-186.6181 1.4482,-187.4526 1.1097,-1.0234 454.0929,-166.5991 472.1864,-172.5949 48.4965,-16.0708 76.6632,-31.9215 84.4336,-47.5147 3.0928,-6.2064 3.1948,-8.8279 0.5555,-14.28 -4.8029,-9.9213 -23.6765,-17.7897 -51.9891,-21.674 -14.0712,-1.9305 -61.4718,-1.6167 -81,0.5362 -33.3792,3.6801 -33.445,3.6973 -124,32.5459 -78.6791,25.0651 -91.8679,29.6147 -191.4575,66.0444 -58.8266,21.5187 -107.5413,38.9008 -108.2549,38.627 -1.0534,-0.4043 -1.2495,-18.8868 -1.0425,-98.2742 l 0.2549,-97.7762 13.795,-5.7399 c 67.9876,-28.28839 178.2072,-52.28222 281.205,-61.21578 51.6529,-4.48013 109.5047,-3.76364 162,2.00636 129.0073,14.17977 225.201,37.21512 292,69.92472 57.658,28.2335 90.7835,61.3585 103.0198,103.0181 3.067,10.4421 2.9113,17.6483 -0.6297,29.1317 -8.8182,28.5976 -39.1351,58.4545 -86.5594,85.2462 -13.9369,7.8734 -44.0384,22.1877 -60.9317,28.975 -17.3012,6.9512 -701.0396,253.1471 -703.0434,253.1471 -0.7246,0 -1.6202,-1.2062 -1.9902,-2.6804 z M -2434.4019,11.2047 c -18.2378,-0.7039 -42.1942,-2.5744 -57,-4.4505 -29.1262,-3.6908 -111.241,-18.697 -153.5,-28.0517 -141.433,-31.3081 -215.9323,-70.7547 -234.0102,-123.906 -6.7957,-19.9803 -5.2973,-42.4677 4.0718,-61.1058 5.1601,-10.2648 8.6525,-15.0888 17.9073,-24.7348 20.4741,-21.3393 49.0567,-37.9732 121.0311,-70.4349 28.7847,-12.9825 39.1144,-16.8004 255,-94.2494 214.2036,-76.84559 271.3959,-96.80611 274.2442,-95.71313 1.0114,0.38811 1.2146,19.6014 1.0108,95.56773 l -0.255,95.082 -176,66.6374 c -96.8,36.6506 -178.025,67.6712 -180.5,68.9347 -29.3216,14.9687 -25.9691,37.4035 7.2485,48.505 14.5468,4.8616 22.6443,5.4492 76.5524,5.5552 l 49.6991,0.098 10,-2.6158 c 34.927,-9.1364 94.0109,-29.4529 177.2987,-60.9655 15.5642,-5.8889 28.9517,-10.4564 29.75,-10.1501 1.2526,0.4807 1.4513,12.1792 1.4513,85.4659 0,66.7148 -0.2679,85.1281 -1.25,85.932 -2.5614,2.0964 -57.1259,12.0924 -90.8283,16.6393 -44.8294,6.048 -98.1338,9.2647 -131.9217,7.9608 z"
       id="path3878"
       inkscape:connector-curvature="0" />
    <path
       style="fill:#ffffff;fill-rule:evenodd;fill-opacity:1;stroke:none"
       d="m -1985.9019,126.7626 c -84.7,-29.124 -154.4982,-53.622 -155.1071,-54.4401 -0.8048,-1.0813 -1.2831,-165.0814 -1.7518,-600.74174 -0.3547,-329.5899 -0.8988,-651.67936 -1.2091,-715.75436 -0.3604,-74.3935 -0.2146,-117.0059 0.4033,-117.8996 0.7968,-1.1525 36.2459,8.4496 200.8039,54.3921 212.1272,59.2233 224.4494,62.7639 253.3725,72.8027 84.7561,29.4178 152.2128,65.9232 208.4883,112.8272 14.3098,11.9269 39.3935,37.2311 51.8561,52.3122 49.6432,60.0733 78.8133,130.45513 88.0989,212.5654 5.1743,45.75471 3.5925,109.76579 -4.0253,162.89243 -13.6941,95.50325 -47.1697,163.39807 -98.9297,200.64787 -10.7532,7.73867 -31.4487,18.25117 -44.2415,22.4729 -19.3981,6.40156 -37.2022,8.9868 -61.8905,8.9868 -33.0607,0 -65.7533,-6.29473 -105.5062,-20.31443 -11.9137,-4.20161 -39.6905,-15.64631 -42.8618,-17.66003 -1.3253,-0.84157 -1.5582,-32.71711 -2,-273.73901 l -0.5,-272.78653 -2.3452,-6.467 c -5.5932,-15.4239 -12.9394,-26.7806 -24.2816,-37.5374 -13.4874,-12.7912 -27.9536,-20.4743 -43.6511,-23.1832 -26.3187,-4.5418 -45.4086,9.1067 -53.4122,38.1876 l -2.2017,8 -0.6733,166.5 c -0.3703,91.575 -0.7322,371.39208 -0.8041,621.8157 -0.09,311.7056 -0.4573,455.9259 -1.166,457.25 -0.5693,1.0639 -1.3568,1.9093 -1.75,1.8787 -0.3931,-0.031 -70.0148,-23.8842 -154.7148,-53.0082 z m 218.2378,30.4683 c -0.4058,-0.4058 -0.7378,-42.238 -0.7378,-92.9604 0,-86.4038 0.1104,-92.3485 1.75,-94.2189 1.1446,-1.3057 80.9659,-30.9663 230.7252,-85.7344 125.9364,-46.0559 233.9364,-85.306 240,-87.2224 15.9529,-5.0419 36.439,-13.1948 49.3779,-19.651 34.8441,-17.3865 46.9487,-35.1073 33.1367,-48.5114 -14.3044,-13.8819 -54.9917,-20.9777 -104.3997,-18.2071 -19.4457,1.0905 -45.9281,3.8643 -58.819,6.1608 -3.1509,0.5614 -44.3259,13.3116 -91.5,28.3339 -80.1776,25.532 -92.6578,29.8335 -191.3725,65.9598 -58.0808,21.2556 -106.0701,38.6466 -106.643,38.6466 -0.5729,0 -1.3148,-0.7118 -1.6486,-1.5818 -0.7743,-2.0178 -0.7759,-188.1868 0,-191.0728 0.379,-1.4125 2.5268,-3.0229 6.2364,-4.6758 59.1245,-26.3448 162.7459,-50.8398 260.8901,-61.67161 83.9276,-9.26277 149.3763,-7.53428 247.8399,6.5454 200.5089,28.67151 313.8237,84.55241 336.4848,165.93651 2.4684,8.8652 2.4549,15.2006 -0.053,25.0082 -8.6455,33.8033 -46.2708,68.0123 -109.0031,99.1056 -18.7626,9.2997 -36.4157,16.9366 -56,24.2261 -24.3001,9.0448 -681.4468,245.4534 -683.5122,245.8936 -1.1067,0.2359 -2.3442,0.097 -2.75,-0.3089 z M -2443.9019,10.2115 c -15.9227,-0.8543 -44.6347,-3.5686 -56.8925,-5.3783 -20.139,-2.9733 -84.2057,-14.4529 -112.1075,-20.0875 -168.5377,-34.0358 -250.8125,-75.8836 -267.2232,-135.9193 -1.3224,-4.8377 -1.7655,-10.0803 -1.7327,-20.5 0.041,-13.116 0.2491,-14.5998 3.2919,-23.5 5.0379,-14.7363 10.9072,-23.7356 24.164,-37.0501 21.4902,-21.5839 45.7498,-35.5801 119.5,-68.9438 25.0761,-11.3441 43.1398,-18.0069 253.5,-93.50339 234.9134,-84.30837 272.3342,-97.30015 274.6714,-95.36046 1.0875,0.90255 1.3258,17.91137 1.3133,93.73019 -0.01,50.94516 -0.3754,93.19476 -0.8154,93.88796 -0.4401,0.6932 -79.2957,30.9566 -175.2347,67.2521 -95.939,36.2955 -177.5846,67.5718 -181.4346,69.5029 -31.4866,15.7935 -25.8184,39.9972 11.9286,50.9359 13.1951,3.8238 25.172,4.5494 74.9274,4.5396 46.1134,-0.01 46.1506,-0.011 56.144,-2.55 32.7366,-8.318 85.7132,-26.3738 167.3485,-57.0368 21.0916,-7.9223 38.931,-14.4041 39.643,-14.4041 0.712,0 1.5677,0.7118 1.9015,1.5818 0.3339,0.87 0.607,38.584 0.607,83.8089 0,64.2179 -0.2738,82.5954 -1.25,83.9091 -1.3827,1.8606 -17.4865,5.3825 -51.25,11.2084 -35.8345,6.1832 -60.9985,9.4146 -93.5,12.0068 -18.7213,1.4932 -72.9309,2.6518 -87.5,1.8701 z"
       id="path3876"
       inkscape:connector-curvature="0" />
    <path
       style="fill:#ffffff;fill-rule:evenodd;fill-opacity:1;stroke:none"
       d="m -1986.4019,126.1708 c -83.875,-28.869 -153.0348,-53.019 -153.6884,-53.6667 -0.9131,-0.9049 -1.4347,-145.7452 -2.2516,-625.1777 -1.45,-851.0283 -1.4905,-809.5 0.789,-809.5 1.87,0 387.1959,107.374 412.151,114.849 99.432,29.7838 177.8217,68.8243 242,120.5234 16.2099,13.058 48.9768,45.831 61.1161,61.1276 53.5825,67.51878 80.6651,140.23192 86.9687,233.5 1.2986,19.2126 0.7021,70.76303 -1.0644,92 -6.7201,80.78908 -22.6527,140.13892 -49.8446,185.67461 -9.8484,16.49226 -17.3375,26.42827 -29.1125,38.62447 -27.2806,28.25651 -56.2758,43.67527 -95.6134,50.84436 -15.8625,2.89086 -49.7456,3.14022 -67.9499,0.50007 -32.6816,-4.73978 -66.977,-14.90548 -103,-30.53081 l -13,-5.63887 -0.5,-271.48692 c -0.472,-256.30111 -0.5993,-271.82251 -2.2759,-277.48691 -4.5085,-15.2327 -14.959,-32.0304 -26.4759,-42.5562 -11.3025,-10.3298 -22.2787,-16.5439 -36.3531,-20.5811 -7.8311,-2.2464 -10.4705,-2.5528 -18.4099,-2.1375 -7.6591,0.4006 -10.4269,1.0269 -15.9418,3.6077 -16.1986,7.5802 -25.8072,24.5236 -28.5215,50.2937 -0.6256,5.9394 -1.0473,132.28455 -1.1512,344.8734 -0.09,184.525 -0.4355,461.275 -0.7673,615 -0.6014,278.5597 -0.6101,279.5006 -2.6034,279.6667 -1.1,0.092 -70.625,-23.4533 -154.5,-52.3223 z m 219.2177,30.3309 c -0.5325,-0.693 -0.6599,-39.3189 -0.3104,-94.1194 l 0.5927,-92.944 222,-81.3085 c 122.1,-44.7196 233.8287,-85.3618 248.2861,-90.3159 14.4573,-4.954 32.0073,-11.5249 39,-14.6019 58.5566,-25.7665 66.7468,-53.228 19.9219,-66.7973 -14.1124,-4.0896 -27.5237,-5.7067 -52.208,-6.295 -25.714,-0.6128 -44.2221,0.4842 -72.4667,4.2951 l -18.4667,2.4917 -86.0333,27.3929 c -80.4633,25.6194 -92.8567,29.8899 -191.4255,65.96 -57.9657,21.2118 -106.2304,38.567 -107.2549,38.567 -1.806,0 -1.8551,-2.9506 -1.6079,-96.75 l 0.255,-96.75 12.1671,-5.2077 c 71.0365,-30.40449 201.3719,-57.16188 308.8329,-63.40224 22.5285,-1.30825 85.0371,-0.66003 106,1.09922 87.1547,7.31424 182.921,24.30394 245,43.46492 105.1719,32.4619 163.7262,76.5114 178.5863,134.3477 2.929,11.4 0.8542,23.4207 -6.5931,38.1981 -18.4858,36.6807 -77.0789,76.7613 -155.0603,106.0689 -8.8966,3.3436 -670.0172,241.3902 -683.1224,245.9687 -3.9098,1.366 -5.4123,1.5232 -6.0928,0.6377 z M -2459.4019,8.7515 c -15.6259,-1.1761 -39.0552,-3.8729 -51.5,-5.928 -185.7799,-30.6786 -283.1786,-60.8874 -334.5,-103.7473 -13.5732,-11.3354 -22.492,-22.5636 -28.9003,-36.384 -5.637,-12.1567 -7.4548,-20.3432 -7.4091,-33.3658 0.1249,-35.536 19.2755,-61.9677 64.8094,-89.4498 14.8051,-8.9356 47.0542,-24.8267 84,-41.3918 25.9426,-11.6317 44.79,-18.5729 256.5,-94.46423 208.9345,-74.89644 263.9241,-94.19417 268.4094,-94.19417 1.4582,0 1.5781,8.39358 1.3457,94.23273 l -0.2551,94.23277 -175,66.1929 c -96.25,36.4062 -177.8529,67.6465 -181.3397,69.4229 -7.5682,3.8559 -16.9341,12.1332 -18.8107,16.6244 -0.7423,1.7765 -1.3496,5.4064 -1.3496,8.0664 0,11.8356 12.8299,22.1116 34.922,27.9705 9.3508,2.4798 10.7868,2.5642 60.533,3.5593 39.8564,0.7972 52.5658,0.7486 58.3498,-0.2233 22.3059,-3.7481 86.8784,-25.3141 175.5948,-58.6454 22.4948,-8.4515 41.2823,-15.1298 41.75,-14.8407 0.4677,0.289 0.8504,38.2439 0.8504,84.3441 0,66.4728 -0.2624,84.0363 -1.2681,84.8709 -1.3445,1.1159 -33.1741,7.4647 -58.2319,11.6151 -33.0977,5.482 -69.5699,9.7176 -99.5,11.5551 -18.8498,1.1573 -73.3524,1.125 -89,-0.053 z"
       id="path3874"
       inkscape:connector-curvature="0" />
    <path
       style="fill:#ffffff;fill-rule:evenodd;fill-opacity:1;stroke:none"
       d="m -1985.82,125.8148 c -84.655,-29.1029 -154.2856,-53.4935 -154.7347,-54.2014 -0.4491,-0.7078 -0.8421,-101.637 -0.8733,-224.287 -0.031,-122.65 -0.4557,-444.625 -0.9434,-715.5 -0.4878,-270.875 -0.5349,-492.8618 -0.1047,-493.304 0.6954,-0.7147 358.234,98.4485 408.5742,113.3179 177.2334,52.3511 293.8928,135.9888 352.3052,252.58136 31.8812,63.63554 45.9927,138.90614 42.2583,225.40474 -2.227,51.583 -6.9672,88.53894 -16.1616,126 -25.3704,103.36678 -79.077,163.93714 -158.4019,178.64577 -15.484,2.87109 -58.1034,2.614 -76,-0.45845 -18.7444,-3.218 -39.4929,-8.58685 -59.1922,-15.3165 -17.1418,-5.85597 -43.7446,-16.61652 -48.0429,-19.4329 l -2.2649,-1.48403 0,-269.31698 c 0,-266.74251 -0.019,-269.39261 -2.0159,-277.22691 -11.5666,-45.3849 -63.2358,-78.6444 -97.7367,-62.9132 -6.2368,2.8437 -15.1826,11.0106 -18.7745,17.1397 -4.0681,6.9417 -7.3442,16.6379 -8.9988,26.6338 -1.3546,8.1834 -1.5884,79.11475 -2.0623,625.7297 -0.294,339.075 -0.7404,617.5125 -0.9922,618.75 -0.2517,1.2375 -0.7866,2.2281 -1.1887,2.2014 -0.402,-0.027 -69.994,-23.8601 -154.649,-52.963 z m 218.4181,-61.7494 c 0,-73.1997 0.2661,-93.2052 1.25,-93.9859 1.632,-1.2949 453.6526,-166.637 473.25,-173.1075 38.124,-12.5874 64.68,-26.1284 77.125,-39.3265 6.5014,-6.8947 8.5933,-10.9692 8.6829,-16.9123 0.2221,-14.7212 -20.2426,-25.341 -57.8079,-29.9985 -14.3068,-1.7739 -54.5609,-1.5146 -74.5,0.4798 -37.3116,3.7321 -34.6712,3.0567 -127.5,32.6129 -79.3383,25.2609 -92.1092,29.6639 -191.7306,66.1023 -58.7019,21.4713 -107.1894,38.7552 -107.75,38.4087 -0.681,-0.4209 -1.0194,-32.3059 -1.0194,-96.048 l 0,-95.4179 2.4568,-1.6097 c 1.3512,-0.8854 7.7713,-3.7674 14.2669,-6.4046 65.7332,-26.68691 172.0146,-50.00734 268.7763,-58.97531 62.1325,-5.75849 112.6912,-5.1825 178,2.02785 146.4502,16.1687 256.5632,46.74226 319.4334,88.69256 16.1084,10.7484 23.6925,17.0178 35.7341,29.5397 15.4024,16.0166 25.4513,32.7106 30.7997,51.1669 3.0466,10.5131 3.176,16.6817 0.5643,26.8933 -10.3152,40.332 -64.8133,82.9965 -149.0315,116.6712 -15.2115,6.0823 -694.8479,250.9187 -698.75,251.722 l -2.25,0.4632 0,-92.9942 z m -685.5,-55.356 c -30.983,-1.8266 -82.9568,-9.7233 -147.8109,-22.4578 -175.0639,-34.3749 -258.9255,-75.1227 -277.6853,-134.9252 -3.0838,-9.8305 -3.8045,-26.4426 -1.6157,-37.2444 5.5601,-27.4403 23.8735,-49.474 59.6518,-71.7697 13.7493,-8.5681 48.8602,-26.0086 84.9601,-42.2019 30.4296,-13.6498 39.1457,-16.8718 256.5,-94.81596 212.7261,-76.28454 269.5885,-96.14942 271.6235,-94.89171 0.4918,0.30395 0.8765,41.27869 0.8765,93.36024 0,73.04643 -0.2663,93.03493 -1.25,93.83433 -0.6875,0.5587 -79.325,30.5426 -174.75,66.6308 -95.425,36.0882 -176.8082,67.2711 -180.8516,69.2952 -12.9543,6.485 -21.1801,15.9733 -21.1264,24.3688 0.076,11.8143 14.4336,23.5783 35.2531,28.8839 13.0673,3.3301 26.1036,4.0504 73.3032,4.0504 l 45.3664,0 15.2777,-3.9042 c 30.2079,-7.7195 101.6554,-32.4049 178.1159,-61.5397 12.561,-4.7863 23.4735,-8.4586 24.25,-8.1606 1.2,0.4605 1.4094,12.9524 1.3964,83.3231 -0.01,45.5298 -0.389,83.3706 -0.8457,84.0907 -1.4849,2.3415 -55.4396,12.3202 -95.139,17.5957 -50.0945,6.6568 -102.7228,8.9999 -145.5,6.478 z"
       id="path3872"
       inkscape:connector-curvature="0" />
    <path
       style="fill:#ffffff;fill-rule:evenodd;fill-opacity:1;stroke:none"
       d="m -1986.3834,125.2199 c -83.8649,-28.8511 -152.8347,-52.8097 -153.2662,-53.2412 -0.7559,-0.7559 -2.6852,-887.14844 -2.7303,-1254.4023 -0.02,-162.022 0.1254,-178.75 1.5532,-178.75 2.5959,0 404.361,112.4364 424.9248,118.9178 95.9001,30.2263 172.1891,69.5772 233,120.1844 12.4337,10.3474 40.6184,38.3901 50.6529,50.3978 55.6074,66.5418 85.3345,143.18753 91.9207,237 1.3467,19.18266 0.732,75.80291 -1.0531,97 -5.5487,65.88677 -18.119,119.12263 -38.0751,161.25068 -35.317,74.55566 -93.3323,113.24932 -169.8,113.24932 -40.7649,0 -88.3818,-11.52251 -138.3812,-33.48598 l -10.7357,-4.71595 -0.2673,-271.14904 -0.2672,-271.14903 -2.3099,-7.5 c -2.8125,-9.1318 -9.5011,-21.9648 -15.5355,-29.8069 -16.964,-22.046 -44.8928,-36.6137 -66.9509,-34.9218 -23.2212,1.7812 -37.8411,17.6256 -43.8233,47.494 -1.0847,5.4157 -1.3536,117.77878 -2.7359,1143.4847 -0.131,97.1686 -0.2336,102.7459 -1.8885,102.6751 -0.9625,-0.041 -70.3667,-23.6805 -154.2315,-52.5316 z m 219.466,30.5815 c -1.2476,-2.0188 0.6154,-184.8226 1.8936,-185.8048 1.4986,-1.1516 457.9204,-167.9426 472.6219,-172.7111 59.496,-19.2977 92.0848,-43.1399 84.9419,-62.144 -4.0988,-10.9052 -22.4182,-19.4846 -51.3203,-24.0345 -13.9656,-2.1986 -61.725,-2.4736 -80.1216,-0.4615 -39.162,4.2835 -33.2139,2.763 -126.5,32.3374 -80.8198,25.6223 -91.317,29.2337 -191.768,65.9748 -58.4475,21.3778 -106.935,38.8687 -107.75,38.8687 -1.299,0 -1.482,-11.837 -1.482,-95.8634 l 0,-95.8635 5.75,-2.5624 c 61.1528,-27.2516 171.7743,-52.69706 272.25,-62.62356 56.2615,-5.55836 113.2189,-5.74405 167,-0.54446 94.1435,9.10185 188.3488,27.69922 249.5,49.25452 90.2614,31.8165 141.0335,73.0199 154.6349,125.492 3.1785,12.2621 1.2803,23.226 -6.7037,38.7197 -17.0184,33.026 -62.1129,66.1955 -129.4312,95.2038 -18.1174,7.807 -14.871,6.6275 -371,134.7955 -186.175,67.0028 -339.242,122.117 -340.1488,122.4758 -0.9069,0.3588 -1.9719,0.1297 -2.3667,-0.509 z M -2440.4019,8.7811 c -34.5646,-1.2809 -50.642,-3.2561 -106,-13.0226 -171.5819,-30.2713 -259.6701,-60.0302 -304.195,-102.7662 -15.091,-14.4848 -23.2897,-27.3262 -28.0116,-43.8744 -3.089,-10.8253 -3.0931,-28.5084 -0.01,-39.4482 4.5304,-16.0708 11.4516,-27.7728 23.7445,-40.1457 15.8146,-15.9175 35.1487,-28.5032 70.9712,-46.1995 60.4279,-29.8511 56.4631,-28.323 303.5983,-117.01293 199.2753,-71.51434 267.4904,-95.48517 271.7273,-95.48517 0.8908,0 1.1744,22.55369 1.1744,93.40217 l 0,93.40213 -2.75,0.9863 c -7.1655,2.57 -341.5644,129.3086 -347.25,131.6093 -9.1415,3.6991 -19.52,11.042 -23.2316,16.4367 -6.2363,9.0642 -4.4524,19.9146 4.5695,27.7923 5.1319,4.481 17.9774,10.6175 26.6621,12.7368 12.486,3.0468 20.8499,3.4928 70.5,3.7591 l 50,0.2681 13.5,-3.6306 c 34.5937,-9.3035 110.5205,-35.6685 184.7358,-64.1482 9.4797,-3.6377 17.4697,-6.6141 17.7557,-6.6141 0.2859,0 0.4048,37.902 0.2642,84.2267 l -0.2557,84.2266 -5.5,1.2674 c -32.4425,7.4761 -96.1979,17.0384 -135,20.2479 -12.5243,1.0359 -60.3018,3.136 -65,2.8571 -1.375,-0.082 -11.275,-0.4736 -22,-0.871 z"
       id="path3870"
       inkscape:connector-curvature="0" />
    <path
       style="fill:#ffffff;fill-rule:evenodd;fill-opacity:1;stroke:none"
       d="m -1985.6356,124.957 c -84.0036,-28.9468 -153.1323,-53.0806 -153.6194,-53.6306 -1.0474,-1.1826 -3.3438,-1430.6461 -2.3001,-1431.7239 0.5965,-0.616 364.4589,100.3769 409.2358,113.5866 160.7522,47.4239 274.2274,123.6015 335.3672,225.1373 42.1743,70.03939 60.7876,152.34111 56.6861,250.64622 -3.1539,75.59187 -13.2268,130.53472 -32.79,178.85378 -27.0452,66.79866 -70.3141,108.30191 -128.1659,122.93586 -28.2734,7.15194 -65.9204,7.13634 -101.18,-0.0419 -26.7954,-5.4551 -60.9867,-16.78354 -88.25,-29.23938 l -7.75,-3.54076 0,-269.39693 c 0,-265.63389 -0.028,-269.50739 -1.9901,-277.30689 -6.1943,-24.6203 -25.6594,-48.1641 -49.5099,-59.8845 -11.3033,-5.5545 -19.5013,-7.6461 -30.0854,-7.6756 -10.3697,-0.029 -17.4182,1.9692 -25.1424,7.1272 -10.2821,6.8661 -17.2075,17.9061 -21.4049,34.1221 -1.9888,7.6836 -2.2097,11.4746 -2.5872,44.4008 -0.227,19.8 -0.7204,299.66257 -1.0964,621.9168 -0.4542,389.24843 -1.0194,585.98853 -1.6837,586.13053 -0.55,0.1176 -69.7302,-23.4699 -153.7337,-52.4167 z m 219.4785,-61.6928 0.2552,-92.7982 222,-81.3213 c 122.1,-44.7268 232.125,-84.7501 244.5,-88.9407 38.2652,-12.9579 61.2568,-23.3853 75.8855,-34.4164 12.2612,-9.2459 17.1145,-16.4094 17.1145,-25.2615 0,-4.4239 -0.5473,-6.1551 -3.0285,-9.5803 -5.1361,-7.0902 -16.353,-13.0524 -32.0283,-17.0241 -28.3604,-7.1857 -78.3228,-7.2313 -126.8054,-0.1155 -11.5817,1.6998 -22.6696,4.9782 -99.3373,29.3718 -81.016,25.777 -92.7575,29.8219 -191.7478,66.0561 -57.9959,21.2288 -105.8107,38.2343 -106.2551,37.7899 -0.4443,-0.4443 -0.693,-43.533 -0.5527,-95.7527 l 0.2551,-94.9449 12.0854,-5.1727 c 54.3637,-23.2686 152.279,-46.39488 242.4146,-57.25508 69.2685,-8.34597 128.3336,-9.10062 195,-2.49142 64.194,6.36409 131.8345,17.81294 185.7387,31.43819 99.7227,25.20671 166.518,61.45751 196.628,106.71301 10.5562,15.866 17.6333,34.3961 17.6333,46.1698 0,10.8807 -5.3279,25.3222 -14.1261,38.2893 -5.4427,8.0216 -20.0327,23.1568 -30.3739,31.5089 -26.4194,21.3374 -69.7779,44.8599 -113.5,61.5749 -14.4288,5.5161 -686.9085,247.6147 -690.2552,248.4979 -1.6657,0.4396 -1.7422,-4.2707 -1.5,-92.335 z M -2453.9019,7.7291 c -27.9918,-1.7378 -45.5297,-4.1069 -94.5,-12.7654 -163.6023,-28.9267 -250.5908,-57.6377 -298,-98.3563 -22.2691,-19.1264 -34.0103,-42.3342 -33.993,-67.191 0.02,-28.8765 13.9892,-53.0015 43.2727,-74.7324 19.2194,-14.2625 43.1804,-27.0031 95.458,-50.7571 l 35.2377,-16.0114 224.7623,-80.6762 c 217.3622,-78.01997 271.9236,-97.0771 273.5175,-95.53372 0.4154,0.40221 0.6404,42.3199 0.5,93.15041 l -0.2552,92.41911 -175,66.1909 c -96.25,36.405 -177.925,67.6915 -181.5,69.5257 -12.3026,6.3117 -21.03,17.0624 -20.9725,25.8347 0.051,7.7899 8.2795,17.0623 20.4725,23.07 17.4627,8.6041 29.4021,9.9285 89.5,9.9279 44.2263,-5e-4 44.5644,-0.016 54.9771,-2.5388 29.7237,-7.2011 96.0647,-29.8892 175.5974,-60.053 16.541,-6.2733 30.6035,-11.4061 31.25,-11.4061 1.7654,0 1.6915,165.3467 -0.074,166.7446 -2.6019,2.0597 -65.6057,13.2561 -96.75,17.1935 -50.059,6.3286 -102.5158,8.509 -143.5,5.9646 z"
       id="path3868"
       inkscape:connector-curvature="0" />
    <path
       style="fill:#ffffff;fill-rule:evenodd;fill-opacity:1;stroke:none"
       d="m -1985.3459,124.2721 c -83.8442,-28.8385 -152.7738,-52.7739 -153.1769,-53.1897 -0.8022,-0.8274 -3.3842,-1430.0842 -2.585,-1430.8835 0.6612,-0.6611 400.0282,110.9199 424.4029,118.576 97.821,30.7254 175.6098,71.2204 236.303,123.0137 23.1592,19.7632 50.4826,49.5191 67.3039,73.2958 34.8201,49.21766 57.7857,107.22007 67.2079,169.742 6.3756,42.30601 7.094,99.50664 1.9028,151.5 -9.6753,96.90413 -36.342,166.51225 -80.5522,210.26568 -25.4059,25.14342 -53.8644,39.68588 -90.8624,46.43123 -16.5235,3.0125 -49.8333,3.04439 -69.0126,0.0661 -33.1947,-5.15479 -63.6744,-14.16561 -98.9874,-29.2641 l -13.5,-5.77209 -0.52,-271.36341 c -0.4918,-256.61101 -0.617,-271.68961 -2.3037,-277.36341 -4.8236,-16.2257 -17.4194,-35.2921 -30.3834,-45.9916 -26.2705,-21.6816 -56.7542,-26.6862 -76.4856,-12.5568 -12.4678,8.928 -20.2498,25.1747 -22.7751,47.5484 -0.6544,5.7982 -1.0187,80.89321 -1.024,211.0836 -0.014,338.61744 -1.304,1027.4202 -1.9245,1027.3561 -0.321,-0.033 -69.1835,-23.6554 -153.0277,-52.494 z m 219.8798,29.8043 c -0.2172,-2.5378 0.2383,-182.7574 0.4625,-182.9816 0.7592,-0.7592 456.6111,-167.2277 472.0059,-172.3676 57.3528,-19.1486 87.5958,-39.0893 87.5958,-57.7564 0,-15.1095 -19.0641,-26.0622 -54.5,-31.3112 -12.0353,-1.7828 -64.7877,-1.7947 -81,-0.018 -37.4721,4.1059 -32.8315,2.9143 -124,31.8396 -78.9854,25.06 -90.3578,28.9769 -190.5,65.6122 -58.575,21.4287 -107.2875,39.1875 -108.25,39.464 -1.6579,0.4762 -1.75,-4.4984 -1.75,-94.5407 l 0,-95.0433 5.75,-2.6384 c 3.1625,-1.4512 13.4,-5.5018 22.75,-9.0013 61.7386,-23.10761 160.8315,-44.47277 245.5,-52.93162 31.7627,-3.17328 41.314,-3.71602 75,-4.26182 47.6703,-0.77239 79.0275,1.05192 133,7.73772 217.5883,26.9536 342.0893,84.32212 364.4823,167.94882 2.3395,8.737 2.4541,10.1024 1.4262,17 -2.7554,18.4891 -12.619,34.9308 -32.1554,53.5999 -25.8098,24.6638 -68.2698,49.4875 -119.2531,69.7196 -12.8172,5.0864 -694.6278,250.6805 -695.9312,250.6805 -0.3129,0 -0.5977,-0.3375 -0.633,-0.75 z M -2451.9019,7.2281 c -2.2,-0.213 -9.85,-0.8638 -17,-1.4463 -20.7235,-1.6883 -34.4357,-3.6753 -76.5,-11.0853 -127.9577,-22.5408 -200.2039,-42.212 -254.7858,-69.3732 -53.7976,-26.7708 -79.4349,-57.7534 -79.4349,-95.9969 0,-23.2422 8.4801,-42.0806 27.234,-60.5 20.1537,-19.7942 46.6814,-35.0294 114.9096,-65.9939 30.9436,-14.0433 34.8564,-15.4927 256.5,-95.01493 187.4924,-67.2693 245.3677,-87.70009 270.3271,-95.42919 l 2.25,-0.69676 0,92.49554 0,92.49554 -5.25,1.9697 c -109.4226,41.0526 -345.4354,130.9976 -350.7299,133.6639 -21.9044,11.0308 -27.586,28.2878 -13.7428,41.7417 5.2902,5.1415 12.1898,9.0237 21.9588,12.3555 14.1238,4.817 21.3831,5.3505 76.7639,5.6419 l 51.5,0.271 12,-3.2741 c 35.5371,-9.6959 105.5044,-33.9406 181.1676,-62.7772 10.7494,-4.0968 19.9492,-7.4487 20.4441,-7.4487 0.5279,0 0.7941,34.202 0.6441,82.75 l -0.2558,82.75 -15.5,3.1957 c -36.5697,7.5399 -82.9571,14.3969 -121,17.8863 -16.368,1.5014 -90.9703,2.8388 -101.5,1.8197 z"
       id="path3866"
       inkscape:connector-curvature="0" />
  </g>
</svg>
