<?xml version="1.0" encoding="UTF-8" standalone="no"?>
<!-- Created with Inkscape (http://www.inkscape.org/) -->

<svg
   xmlns:dc="http://purl.org/dc/elements/1.1/"
   xmlns:cc="http://creativecommons.org/ns#"
   xmlns:rdf="http://www.w3.org/1999/02/22-rdf-syntax-ns#"
   xmlns:svg="http://www.w3.org/2000/svg"
   xmlns="http://www.w3.org/2000/svg"
   xmlns:sodipodi="http://sodipodi.sourceforge.net/DTD/sodipodi-0.dtd"
   xmlns:inkscape="http://www.inkscape.org/namespaces/inkscape"
   version="1.1"
   width="300"
   height="300"
   id="svg3040"
   inkscape:version="0.48.4 r9939"
   sodipodi:docname="twitter.svg">
  <sodipodi:namedview
     pagecolor="#ffffff"
     bordercolor="#666666"
     borderopacity="1"
     objecttolerance="10"
     gridtolerance="10"
     guidetolerance="10"
     inkscape:pageopacity="0"
     inkscape:pageshadow="2"
     inkscape:window-width="1111"
     inkscape:window-height="480"
     id="namedview7"
     showgrid="false"
     inkscape:zoom="0.78666667"
     inkscape:cx="-0.70932203"
     inkscape:cy="150"
     inkscape:window-x="0"
     inkscape:window-y="27"
     inkscape:window-maximized="0"
     inkscape:current-layer="svg3040" />
  <metadata
     id="metadata3046">
    <rdf:RDF>
      <cc:Work
         rdf:about="">
        <dc:format>image/svg+xml</dc:format>
        <dc:type
           rdf:resource="http://purl.org/dc/dcmitype/StillImage" />
        <dc:title></dc:title>
      </cc:Work>
    </rdf:RDF>
  </metadata>
  <defs
     id="defs3044" />
  <path
     style="fill:#ffffff"
     d="m 142.81662,239.75061 c -30.06996,-2.71343 -55.74041,-18.96777 -70.89529,-44.89038 -5.33085,-9.11846 -9.38673,-20.84544 -11.10098,-32.09684 -0.90599,-5.94639 -0.918,-19.6173 -0.0224,-25.42546 2.74909,-17.82733 9.74208,-33.06417 21.34414,-46.506188 2.98695,-3.46065 6.03753,-5.80423 8.5387,-6.55979 6.57887,-1.98734 18.10425,2.52557 29.92586,11.71787 3.03398,2.35917 12.62384,10.977778 12.62384,11.345298 0,0.0948 -1.78872,2.03852 -3.97495,4.31941 -10.39108,10.84108 -24.941,30.08838 -32.28332,42.70586 -6.99215,12.01577 -11.59285,24.47299 -13.74116,37.20667 -0.79236,4.69663 -0.82653,14.87063 -0.0585,17.42444 0.52435,1.74357 0.53939,1.75735 0.77615,0.7112 1.25188,-5.53125 2.09978,-7.89389 4.66826,-13.00805 4.22013,-8.40278 11.98206,-19.58698 21.62508,-31.1597 6.69763,-8.0379 10.74435,-12.35834 25.89308,-27.64442 l 13.76286,-13.88764 9.1192,9.06783 c 19.44337,19.33378 38.67047,41.26365 46.13425,52.61934 5.00586,7.61613 10.17989,18.72171 11.11252,23.85203 0.22393,1.23185 0.13808,1.34999 -3.61944,4.97934 -14.08592,13.60546 -31.74159,22.16059 -50.96712,24.69631 -4.89171,0.64517 -14.58219,0.91896 -18.86082,0.53287 z m 73.98012,-29.60063 c 0,-0.0793 0.25629,-1.8126 0.5695,-3.85175 0.75039,-4.88491 0.7389,-13.64965 -0.0238,-18.10937 -1.39278,-8.14524 -3.54986,-14.20546 -8.54356,-24.00306 -9.46606,-18.57227 -21.57859,-34.85814 -40.61102,-54.6035 l -1.90327,-1.97458 3.65328,-3.20218 c 8.7015,-7.627118 16.51891,-13.045908 24.8572,-17.230248 7.63556,-3.83172 9.92877,-4.39621 13.73885,-3.38194 2.97901,0.79303 4.83923,2.12256 8.13998,5.81779 10.62475,11.894468 17.48828,25.119878 21.07772,40.614768 2.54041,10.96647 2.80753,24.32667 0.71813,35.91569 -2.77326,15.38229 -9.93318,30.47551 -20.04568,42.25664 -0.89509,1.04277 -1.62741,1.83105 -1.62741,1.75174 z M 148.16578,91.928762 c -8.69324,-6.80807 -20.21005,-13.65843 -28.19417,-16.77029 -7.34149,-2.8614 -12.6541,-3.25039 -17.85614,-1.30746 -1.13301,0.42317 1.45462,-1.16046 5.58926,-3.42065 10.94136,-5.98104 23.61689,-9.48714 36.92447,-10.213428 14.597,-0.79666 28.50902,1.69024 41.65435,7.446108 3.65643,1.60102 9.92514,4.94751 11.31074,6.03813 l 0.889,0.69974 -1.4224,-0.61887 c -2.11423,-0.91989 -9.01608,-0.81687 -12.71072,0.18972 -8.12036,2.21236 -18.74255,7.81358 -29.46604,15.53785 -2.17218,1.56465 -4.21239,3.03101 -4.53378,3.25857 -0.47874,0.33897 -0.87365,0.18723 -2.18457,-0.83942 z"
     id="path3014"
     inkscape:connector-curvature="0" />
</svg>
