<?xml version="1.0" encoding="UTF-8" standalone="no"?>
<!-- Created with Inkscape (http://www.inkscape.org/) -->

<svg
   xmlns:dc="http://purl.org/dc/elements/1.1/"
   xmlns:cc="http://creativecommons.org/ns#"
   xmlns:rdf="http://www.w3.org/1999/02/22-rdf-syntax-ns#"
   xmlns:svg="http://www.w3.org/2000/svg"
   xmlns="http://www.w3.org/2000/svg"
   xmlns:sodipodi="http://sodipodi.sourceforge.net/DTD/sodipodi-0.dtd"
   xmlns:inkscape="http://www.inkscape.org/namespaces/inkscape"
   width="434.04764"
   height="101.39149"
   id="svg6757"
   version="1.1"
   inkscape:version="0.48.3.1 r9886"
   sodipodi:docname="logo.svg"
   inkscape:export-filename="/home/zac/pictures/upgslogo.png"
   inkscape:export-xdpi="90"
   inkscape:export-ydpi="90">
  <defs
     id="defs6759" />
  <sodipodi:namedview
     id="base"
     pagecolor="#2b2b2b"
     bordercolor="#666666"
     borderopacity="1.0"
     inkscape:pageopacity="1"
     inkscape:pageshadow="2"
     inkscape:zoom="0.90509668"
     inkscape:cx="100.62891"
     inkscape:cy="125.04636"
     inkscape:document-units="px"
     inkscape:current-layer="layer1"
     showgrid="false"
     showguides="false"
     inkscape:guide-bbox="true"
     fit-margin-top="10"
     fit-margin-left="10"
     fit-margin-right="10"
     fit-margin-bottom="10"
     inkscape:window-width="1440"
     inkscape:window-height="900"
     inkscape:window-x="1366"
     inkscape:window-y="-32"
     inkscape:window-maximized="1"
     inkscape:snap-global="true"
     inkscape:snap-bbox="true">
    <inkscape:grid
       type="xygrid"
       id="grid3021"
       empspacing="5"
       visible="true"
       enabled="true"
       snapvisiblegridlinesonly="true"
       originx="10.714445px"
       originy="16.708734px" />
    <sodipodi:guide
       orientation="0,1"
       position="53.585436,89.493202"
       id="guide3812" />
    <sodipodi:guide
       orientation="0,1"
       position="143.63107,10.496116"
       id="guide3814" />
    <sodipodi:guide
       orientation="0,1"
       position="119.33594,82.617188"
       id="guide3816" />
    <sodipodi:guide
       orientation="0,1"
       position="134.76563,15.625"
       id="guide3818" />
  </sodipodi:namedview>
  <metadata
     id="metadata6762">
    <rdf:RDF>
      <cc:Work
         rdf:about="">
        <dc:format>image/svg+xml</dc:format>
        <dc:type
           rdf:resource="http://purl.org/dc/dcmitype/StillImage" />
        <dc:title></dc:title>
      </cc:Work>
    </rdf:RDF>
  </metadata>
  <g
     inkscape:label="Layer 1"
     inkscape:groupmode="layer"
     id="layer1"
     transform="translate(-197.72514,-432.08375)">
    <flowRoot
       xml:space="preserve"
       id="flowRoot5331"
       style="font-size:40px;font-style:normal;font-weight:normal;line-height:125%;letter-spacing:0px;word-spacing:0px;fill:#ffffff;fill-opacity:0.86877829;stroke:none;font-family:Sans"
       transform="translate(42.115481,160.39844)"><flowRegion
         id="flowRegion5333"><rect
           id="rect5335"
           width="1185.7142"
           height="170.00002"
           x="372.85715"
           y="252.36218"
           style="fill:#ffffff;fill-opacity:0.86877829" /></flowRegion><flowPara
         id="flowPara5337"
         style="font-size:72px;font-style:normal;font-variant:normal;font-weight:normal;font-stretch:normal;text-align:start;line-height:100%;writing-mode:tb-rl;text-anchor:start;font-family:Sawasdee;-inkscape-font-specification:Sawasdee;fill:#ffffff;fill-opacity:0.86877829">GAMING</flowPara><flowPara
         style="font-size:72px;font-style:normal;font-variant:normal;font-weight:normal;font-stretch:normal;text-align:start;line-height:100%;writing-mode:tb-rl;text-anchor:start;font-family:Sawasdee;-inkscape-font-specification:Sawasdee;fill:#ffffff;fill-opacity:0.86877829"
         id="flowPara5485">SOCIETY</flowPara></flowRoot>    <flowRoot
       transform="translate(27.829771,-122.4587)"
       xml:space="preserve"
       id="flowRoot5487"
       style="font-size:40px;font-style:normal;font-variant:normal;font-weight:normal;font-stretch:normal;text-align:start;line-height:125%;letter-spacing:0px;word-spacing:0px;writing-mode:lr-tb;text-anchor:start;fill:#ffffff;fill-opacity:0.86877829;stroke:none;font-family:Sans;-inkscape-font-specification:Sans"><flowRegion
         id="flowRegion5489"><rect
           id="rect5491"
           width="371.73615"
           height="202.0305"
           x="400.02042"
           y="184.46997"
           style="fill:#ffffff;fill-opacity:0.86877829" /></flowRegion><flowPara
         id="flowPara5493" /></flowRoot>    <flowRoot
       transform="translate(27.829771,-122.4587)"
       xml:space="preserve"
       id="flowRoot5537"
       style="font-size:40px;font-style:normal;font-variant:normal;font-weight:normal;font-stretch:normal;text-align:start;line-height:125%;letter-spacing:0px;word-spacing:0px;writing-mode:lr-tb;text-anchor:start;fill:#ffffff;fill-opacity:0.86877829;stroke:none;font-family:Sans;-inkscape-font-specification:Sans"><flowRegion
         id="flowRegion5539"><rect
           id="rect5541"
           width="85"
           height="316.42856"
           x="213.57143"
           y="44.808769"
           style="fill:#ffffff;fill-opacity:0.86877829" /></flowRegion><flowPara
         id="flowPara5543" /></flowRoot>    <path
       sodipodi:type="arc"
       style="fill:#ffffff;fill-opacity:0.86877829;stroke:none"
       id="path5393-6-1-2"
       sodipodi:cx="421.78571"
       sodipodi:cy="142.66591"
       sodipodi:rx="35.357143"
       sodipodi:ry="18.571428"
       d="m 457.14285,142.66591 c 0,10.25672 -15.82993,18.57143 -35.35714,18.57143 -19.52722,0 -35.35715,-8.31471 -35.35715,-18.57143 0,-10.25672 15.82993,-18.57143 35.35715,-18.57143 19.52721,0 35.35714,8.31471 35.35714,18.57143 z"
       transform="matrix(0.29194544,-0.29234011,0.55581921,0.55657061,354.73936,527.17342)" />
    <path
       style="fill:#ffffff;fill-opacity:0.86877829;stroke:none"
       d="M 54.6875 12.0625 L 44.9375 12.125 C 39.693255 12.143998 35.481002 16.380755 35.5 21.625 L 35.5625 37.15625 L 19.5 37.125 C 14.254426 37.116983 10.008021 41.316926 10 46.5625 L 10 56.34375 C 9.9919786 61.589324 14.223176 65.804483 19.46875 65.8125 L 35.65625 65.84375 L 35.71875 81.96875 C 35.737748 87.212995 39.974505 91.425248 45.21875 91.40625 L 54.96875 91.34375 C 60.212995 91.324752 64.425248 87.087995 64.40625 81.84375 L 64.34375 65.875 L 79.8125 65.90625 C 85.058074 65.914267 89.304479 61.714324 89.3125 56.46875 L 89.3125 46.6875 C 89.320521 41.441926 85.120574 37.226767 79.875 37.21875 L 64.25 37.1875 L 64.1875 21.5 C 64.168502 16.255755 59.931745 12.043502 54.6875 12.0625 z "
       transform="translate(197.72514,432.08375)"
       id="rect6433" />
    <path
       sodipodi:type="arc"
       style="fill:#ffffff;fill-opacity:0.86877829;stroke:none"
       id="path5393-6-1-2-1"
       sodipodi:cx="421.78571"
       sodipodi:cy="142.66591"
       sodipodi:rx="35.357143"
       sodipodi:ry="18.571428"
       d="m 457.14285,142.66591 c 0,10.25672 -15.82993,18.57143 -35.35714,18.57143 -19.52722,0 -35.35715,-8.31471 -35.35715,-18.57143 0,-10.25672 15.82993,-18.57143 35.35715,-18.57143 19.52721,0 35.35714,8.31471 35.35714,18.57143 z"
       transform="matrix(0.29194544,-0.29234011,0.55581921,0.55657061,379.7089,552.45379)" />
    <flowRoot
       xml:space="preserve"
       id="flowRoot5331-4"
       style="font-size:40px;font-style:normal;font-weight:normal;line-height:125%;letter-spacing:0px;word-spacing:0px;fill:#ffffff;fill-opacity:0.86877829;stroke:none;font-family:Sans"
       transform="translate(-174.36306,393.72957)"><flowRegion
         id="flowRegion5333-5"><rect
           id="rect5335-0"
           width="1185.7142"
           height="170.00002"
           x="372.85715"
           y="252.36218"
           style="fill:#ffffff;fill-opacity:0.86877829" /></flowRegion><flowPara
         id="flowPara5337-3"
         style="font-size:72px;font-style:normal;font-variant:normal;font-weight:normal;font-stretch:normal;text-align:start;line-height:100%;writing-mode:tb-rl;text-anchor:start;font-family:Sawasdee;-inkscape-font-specification:Sawasdee;fill:#ffffff;fill-opacity:0.86877829">GAMING</flowPara><flowPara
         style="font-size:72px;font-style:normal;font-variant:normal;font-weight:normal;font-stretch:normal;text-align:start;line-height:100%;writing-mode:tb-rl;text-anchor:start;font-family:Sawasdee;-inkscape-font-specification:Sawasdee;fill:#ffffff;fill-opacity:0.86877829"
         id="flowPara5485-5">SOCIETY</flowPara></flowRoot>    <flowRoot
       transform="translate(-188.64877,110.87243)"
       xml:space="preserve"
       id="flowRoot5487-8"
       style="font-size:40px;font-style:normal;font-variant:normal;font-weight:normal;font-stretch:normal;text-align:start;line-height:125%;letter-spacing:0px;word-spacing:0px;writing-mode:lr-tb;text-anchor:start;fill:#ffffff;fill-opacity:0.86877829;stroke:none;font-family:Sans;-inkscape-font-specification:Sans"><flowRegion
         id="flowRegion5489-3"><rect
           id="rect5491-7"
           width="371.73615"
           height="202.0305"
           x="400.02042"
           y="184.46997"
           style="fill:#ffffff;fill-opacity:0.86877829" /></flowRegion><flowPara
         id="flowPara5493-3" /></flowRoot>    <flowRoot
       transform="translate(-188.64877,110.87243)"
       xml:space="preserve"
       id="flowRoot5537-3"
       style="font-size:40px;font-style:normal;font-variant:normal;font-weight:normal;font-stretch:normal;text-align:start;line-height:125%;letter-spacing:0px;word-spacing:0px;writing-mode:lr-tb;text-anchor:start;fill:#ffffff;fill-opacity:0.86877829;stroke:none;font-family:Sans;-inkscape-font-specification:Sans"><flowRegion
         id="flowRegion5539-3"><rect
           id="rect5541-1"
           width="85"
           height="316.42856"
           x="213.57143"
           y="44.808769"
           style="fill:#ffffff;fill-opacity:0.86877829" /></flowRegion><flowPara
         id="flowPara5543-5" /></flowRoot>    <path
       sodipodi:type="arc"
       style="fill:#ffffff;fill-opacity:0.86877829;stroke:none"
       id="path5393"
       sodipodi:cx="421.78571"
       sodipodi:cy="142.66591"
       sodipodi:rx="35.357143"
       sodipodi:ry="18.571428"
       d="m 457.14285,142.66591 c 0,10.25672 -15.82993,18.57143 -35.35714,18.57143 -19.52722,0 -35.35715,-8.31471 -35.35715,-18.57143 0,-10.25672 15.82993,-18.57143 35.35715,-18.57143 19.52721,0 35.35714,8.31471 35.35714,18.57143 z"
       transform="matrix(0.29194544,-0.29234011,0.55581921,0.55657061,379.58264,502.3753)" />
    <path
       sodipodi:type="arc"
       style="fill:#ffffff;fill-opacity:0.86877829;stroke:none"
       id="path5393-8"
       sodipodi:cx="421.78571"
       sodipodi:cy="142.66591"
       sodipodi:rx="35.357143"
       sodipodi:ry="18.571428"
       d="m 457.14285,142.66591 c 0,10.25672 -15.82993,18.57143 -35.35714,18.57143 -19.52722,0 -35.35715,-8.31471 -35.35715,-18.57143 0,-10.25672 15.82993,-18.57143 35.35715,-18.57143 19.52721,0 35.35714,8.31471 35.35714,18.57143 z"
       transform="matrix(0.29194544,-0.29234011,0.55581921,0.55657061,404.85732,527.53137)" />
    <flowRoot
       xml:space="preserve"
       id="flowRoot7458"
       style="font-size:40px;font-style:normal;font-variant:normal;font-weight:normal;font-stretch:normal;text-align:start;line-height:125%;letter-spacing:0px;word-spacing:0px;writing-mode:lr-tb;text-anchor:start;fill:#ffffff;fill-opacity:0.86877829;stroke:none;font-family:Sans;-inkscape-font-specification:Sans"><flowRegion
         id="flowRegion7460"><rect
           id="rect7462"
           width="201.52544"
           height="56.063465"
           x="305.06607"
           y="462.93817"
           style="fill:#ffffff;fill-opacity:0.86877829" /></flowRegion><flowPara
         id="flowPara7464" /></flowRoot>    <path
       style="fill:#ffffff;fill-opacity:0.86877829"
       d="m 323.0009,517.68479 c -4.84345,-0.80908 -10.3939,-3.72053 -14.03572,-7.36232 -4.21797,-4.21798 -7.88727,-11.52365 -9.04412,-18.00708 -0.91359,-5.12013 -0.91191,-35.93742 0.002,-38.12491 1.04835,-2.50902 2.64454,-3.25687 6.95154,-3.25687 4.65267,0 6.03548,0.38173 7.06434,1.95014 0.73117,1.11463 0.84076,3.09426 1.06802,19.29166 0.25234,17.98576 0.25744,18.06059 1.44267,21.16351 1.64028,4.29427 3.25236,6.24326 6.34404,7.66989 2.03736,0.94014 3.29052,1.19152 5.85783,1.17508 5.79076,-0.0371 9.52458,-2.96491 11.90972,-9.33892 0.92513,-2.47225 0.98841,-3.61044 1.12241,-20.18554 0.0925,-11.43724 0.32074,-18.01665 0.65427,-18.85854 0.68247,-1.72264 2.74104,-2.71453 6.13929,-2.95809 3.57567,-0.25628 6.56914,0.63283 7.83488,2.3271 0.9343,1.25062 0.97394,1.88381 1.11367,17.78917 0.18261,20.7857 -0.23606,24.03519 -4.06847,31.57685 -5.83513,11.4828 -17.48875,17.29833 -30.35643,15.14887 z m 126.73033,0.24984 c -0.50848,-0.11812 -2.06858,-0.43847 -3.4669,-0.71187 -1.39831,-0.27341 -4.20649,-1.29937 -6.24039,-2.27993 -8.84005,-4.26182 -15.59384,-12.35355 -18.33333,-21.96516 -1.35694,-4.76087 -1.67596,-13.69579 -0.23829,-18.2381 3.62707,-11.45973 7.76998,-17.34344 18.68739,-22.36235 4.37287,-2.01028 18.7828,-1.94485 23.18,-0.58481 7.21394,2.23124 13.45323,6.08686 13.45323,8.78462 0,1.92681 -2.00511,5.44207 -4.32269,7.57834 -3.15157,2.905 -3.8932,2.93949 -8.81707,0.41001 -5.0939,-2.61682 -8.51514,-3.34496 -12.45547,-2.6509 -9.95899,1.75425 -16.17519,10.44242 -14.58805,20.38921 0.68867,4.31608 2.31002,7.49523 5.3829,10.5549 4.45208,4.43292 9.11913,6.02254 15.19917,5.17689 5.95824,-0.82873 5.73366,-0.57674 5.73366,-6.43327 l 0,-5.04631 -5.30604,-0.16844 c -6.73788,-0.21388 -7.20558,-0.55943 -7.52654,-5.56066 -0.29466,-4.59151 0.52546,-6.59964 2.97281,-7.27922 0.99094,-0.27516 6.04412,-0.49242 11.47765,-0.49346 10.62217,-0.002 12.2937,0.34077 13.50761,2.77022 0.89946,1.80009 0.82685,26.40051 -0.0831,28.16017 -1.81209,3.50419 -8.27791,7.63431 -14.15866,9.044 -2.9604,0.70966 -12.30963,1.31227 -14.05789,0.90612 z m 52.47323,-0.46652 c -7.09275,-1.53738 -12.78126,-5.30701 -16.24103,-10.76252 -2.1765,-3.43197 -1.80414,-5.54696 1.62672,-9.23958 3.85564,-4.14982 6.61489,-3.82717 12.25856,1.43347 4.48992,4.18516 7.69508,5.25635 12.08161,4.03777 3.40174,-0.94501 5.67479,-5.44186 4.17102,-8.25167 -0.77283,-1.44405 -3.62587,-2.7354 -8.95855,-4.05484 -8.27557,-2.04759 -15.1912,-5.42455 -17.55064,-8.57011 -4.43447,-5.91194 -5.19932,-14.50732 -1.87549,-21.07674 5.02641,-9.93453 18.07281,-12.6285 31.4945,-8.22949 5.09647,1.67038 9.33395,4.79405 9.33395,7.65083 0,3.35267 -5.30172,9.24958 -8.316,9.24958 -1.28238,0 -4.49549,-1.65709 -6.35061,-3.27518 -1.71179,-1.49307 -3.89539,-2.02593 -6.90978,-1.68616 -2.60102,0.29317 -4.34597,1.54569 -5.17011,3.71107 -0.56067,1.47308 -0.53529,1.84638 0.2308,3.39502 1.09477,2.21305 3.62781,3.50763 8.91418,4.5558 8.68884,1.72284 14.63229,4.15121 17.13413,7.00065 2.6794,3.05166 3.86497,6.30534 4.08602,11.21366 0.23255,5.16358 -0.41352,8.52352 -2.34106,12.1748 -4.42371,8.37971 -16.60719,13.11032 -27.61822,10.72364 z m -136.88778,-2.95923 c -0.15072,-2.71245 -0.63467,-58.21025 0.24621,-60.3184 1.31094,-3.13751 1.78409,-3.23978 15.7535,-3.40471 13.61063,-0.16069 16.5286,0.17458 20.92267,2.40405 6.05794,3.07366 10.12946,7.42867 12.29084,13.14656 0.83402,2.20635 0.9895,3.58351 0.97486,8.63431 -0.0149,5.16198 -0.1642,6.36084 -1.05834,8.50273 -1.69688,4.06474 -4.21648,7.43115 -7.21586,9.64102 -6.19561,4.56476 -10.00952,5.64198 -20.01881,5.65418 l -6.58708,0.008 0,6.90368 c 0,3.79702 -0.0657,8.16363 -0.18983,9.18064 -0.1381,2.0248 -0.24661,3.98414 -1.74903,3.98414 -3.50486,0 -9.28079,-0.0459 -11.00859,-0.0632 -2.04609,0 -2.32756,-2.65012 -2.36054,-4.27302 z m 28.81445,-31.93138 c 7.92948,-2.20223 7.85045,-13.55505 -0.10928,-15.69838 -0.99827,-0.26882 -4.36902,-0.43029 -7.49057,-0.35884 l -5.67552,0.12988 -0.12748,7.60941 c -0.0701,4.18518 -0.0246,7.87741 0.10105,8.20497 0.28589,0.74498 10.70745,0.83348 13.3018,0.11296 z"
       id="path7514"
       inkscape:connector-curvature="0"
       sodipodi:nodetypes="csscssssssssssssscccsssssssssssssscssssssscsssssssssssssscssssssccssscssscscsccsscscss" />
  </g>
</svg>
